<svg xmlns="http://www.w3.org/2000/svg" xmlns:xlink="http://www.w3.org/1999/xlink" version="1.1" id="Layer_1" x="0px" y="0px" style="enable-background:new 0 0 358.05 358.05;" xml:space="preserve" viewBox="36.31 130.07 285.44 97.91">
<style type="text/css">
	.st0{opacity:0.6;fill:#4667B0;}
	.st1{fill:url(#SVGID_1_);}
	.st2{fill:url(#SVGID_00000054984699297317527190000004227043587000137392_);}
	.st3{fill:#49A1DA;}
	.st4{fill:#BE202E;}
	.st5{fill:#075DA9;}
	.st6{fill:#010101;}
	.st7{fill:none;stroke:#010101;stroke-width:5;stroke-miterlimit:10;}
	.st8{fill:url(#SVGID_00000157996682159806086160000007705975052855587239_);}
	.st9{fill:url(#SVGID_00000057852887134574265650000014803085664524390057_);}
	.st10{fill:none;stroke:#010101;stroke-width:3;stroke-miterlimit:10;}
	.st11{fill:url(#SVGID_00000158016131734211735370000014564714668456055444_);}
	.st12{fill:url(#SVGID_00000060719584317961569180000001539832080706204060_);}
	.st13{fill:#481212;}
	.st14{fill:#86163E;}
	.st15{fill:url(#SVGID_00000008832500322997222870000006487830057192211628_);}
	.st16{fill:url(#SVGID_00000103957099090728521090000016502042951128048796_);}
	.st17{fill:url(#SVGID_00000039094196819993813580000006050277622133578129_);}
	.st18{fill:url(#SVGID_00000146491725873162873790000001392491614751050930_);}
	.st19{fill:url(#SVGID_00000008130802231259007540000013214934216376458656_);}
	.st20{fill:url(#SVGID_00000091735778174768718530000004054648470449165756_);}
	.st21{fill:url(#SVGID_00000176734243599021599530000004035627195841981099_);}
	.st22{fill:url(#SVGID_00000132770871380621013830000017370607519040765591_);}
	.st23{fill:url(#SVGID_00000110431716236847531810000014661356936645980819_);}
	.st24{fill:url(#SVGID_00000169538463126973422340000008849608068756701625_);}
	.st25{fill:url(#SVGID_00000109015458655335633410000007434768434669267094_);}
	.st26{fill:url(#SVGID_00000105394724424409218010000002758695895665624450_);}
	.st27{fill:url(#SVGID_00000165948887042847156150000018162193104606353313_);}
	.st28{fill:url(#SVGID_00000044864402163533381500000016477335833096001955_);}
	.st29{fill:#A83060;}
	.st30{fill:#F05C84;}
	.st31{fill:url(#SVGID_00000164510777394320101070000013526035128034336914_);}
	.st32{fill:#DD3874;}
	.st33{fill:url(#SVGID_00000125566177339918054040000009443925276325903006_);}
	.st34{fill:url(#SVGID_00000017479609803089034700000007884348718701160086_);}
	.st35{fill:url(#SVGID_00000076598806034015060650000000091293802052082820_);}
	.st36{fill:url(#SVGID_00000154390837757884631080000007626262922770187924_);}
	.st37{fill:url(#SVGID_00000170244957686156103290000012658802041679446160_);}
	.st38{fill:url(#SVGID_00000108298301834951511670000014965506370111059361_);}
	.st39{fill:url(#SVGID_00000136376159395330502610000001727338836026909601_);}
	.st40{fill:url(#SVGID_00000161590998100411758880000010501381392238609812_);}
	.st41{fill:url(#SVGID_00000108271435559285566650000017552506518075179175_);}
	.st42{fill:url(#SVGID_00000177478192592327741060000004146530983391836602_);}
	.st43{fill:#821B42;}
	.st44{fill:url(#SVGID_00000070094020926011888120000008224386952524336781_);}
	.st45{fill:url(#SVGID_00000144319496914850563980000017360733562258967469_);}
	.st46{fill:url(#SVGID_00000028305636652718993620000001636984029552070310_);}
	.st47{fill:url(#SVGID_00000073717368492108654760000000070424534796194438_);}
	.st48{fill:url(#SVGID_00000130608995994231751840000005055903417937497227_);}
	.st49{fill:url(#SVGID_00000064349939240386033290000012984874854214002098_);}
	.st50{fill:url(#SVGID_00000152249798519221708780000009215535366506664354_);}
	.st51{fill:url(#SVGID_00000065040718037659983010000004685463218678450079_);}
	.st52{fill:url(#SVGID_00000093139984152137935800000014689430625282018228_);}
	.st53{fill:url(#SVGID_00000062880850359562790480000009329623918041204158_);}
	.st54{fill:url(#SVGID_00000088834589053819883490000009098540841513313465_);}
	.st55{fill:url(#SVGID_00000095329336679573114500000003183723556213241278_);}
	.st56{fill:url(#SVGID_00000015313614362728598670000002447470536916937125_);}
	.st57{fill:#341112;}
	.st58{fill:#651E0D;}
	.st59{fill:url(#SVGID_00000161594878683467628510000017160196872976853408_);}
	.st60{fill:url(#SVGID_00000140731766772582260450000017415136491985460886_);}
	.st61{fill:url(#SVGID_00000052070206530895837410000009660230156035917704_);}
	.st62{fill:url(#SVGID_00000118380002964132408130000012149615334182278830_);}
	.st63{fill:url(#SVGID_00000049199458499938431580000009660718461297397392_);}
	.st64{fill:url(#SVGID_00000159470979220869992670000009446917015161906586_);}
	.st65{fill:url(#SVGID_00000038375283542829566520000005538479536061495168_);}
	.st66{fill:url(#SVGID_00000034781580844853081900000008848898286710379709_);}
	.st67{fill:url(#SVGID_00000005252417872598391420000014257792299604561585_);}
	.st68{fill:url(#SVGID_00000183953098411099504830000002192776232406116782_);}
	.st69{fill:url(#SVGID_00000116941635778856632620000018215686761815408540_);}
	.st70{fill:url(#SVGID_00000160875908801990308650000003871405696705413302_);}
	.st71{fill:url(#SVGID_00000096765833409727620450000005785560246936399292_);}
	.st72{fill:none;stroke:#010101;stroke-width:4;stroke-miterlimit:10;}
	.st73{fill:url(#SVGID_00000165202913061425423990000016570004449351255225_);}
	.st74{fill:url(#SVGID_00000026127450831298110850000009301590661553570208_);}
	.st75{fill:url(#SVGID_00000092433326793374959400000007003414022781277625_);}
	.st76{fill:url(#SVGID_00000126301633306395568900000012407671540359278989_);}
	.st77{fill:url(#SVGID_00000109736604774799749160000004282901326369832358_);}
	.st78{fill:url(#SVGID_00000030472020056808461180000009919200784404920203_);}
	.st79{fill:url(#SVGID_00000038399206884538277350000001585747060298792328_);}
	.st80{fill:url(#SVGID_00000060746126722542892120000005668360251946051223_);}
	.st81{fill:url(#SVGID_00000144311822438542110690000011544728733342441352_);}
	.st82{fill:url(#SVGID_00000127020248837162905850000013937451851986015368_);}
	.st83{fill:url(#SVGID_00000132802034770437089830000005434271217262308761_);}
	.st84{fill:url(#SVGID_00000145778738701782298330000007447080865894834064_);}
	.st85{fill:url(#SVGID_00000045593391408478011950000010933353398153118359_);}
	.st86{fill:url(#SVGID_00000136378178895051058700000014245880461316369847_);}
	.st87{fill:url(#SVGID_00000137131861175448094720000001661874438065397652_);}
	.st88{fill:url(#SVGID_00000031189401494918509220000015463108578865948093_);}
	.st89{fill:url(#SVGID_00000095320207428785746630000014926315922584611210_);}
	.st90{fill:url(#SVGID_00000039817007203965194480000005689297697220595618_);}
	.st91{fill:url(#SVGID_00000077287528674229994360000004376121626797953190_);}
	.st92{fill:url(#SVGID_00000177479945502358862510000017340604297352509580_);}
	.st93{fill:url(#SVGID_00000127723185936038292720000000203935202222821792_);}
	.st94{fill:url(#SVGID_00000069379338055758751980000007935364440127364539_);}
	.st95{fill:url(#SVGID_00000074425629328028634000000013733609728478225285_);}
	.st96{fill:url(#SVGID_00000059294456882443860330000001822699657961906597_);}
	.st97{fill:url(#SVGID_00000003097742828331675060000005594976793123111570_);}
	.st98{fill:#FFFFFF;}
	.st99{fill:#461515;}
	.st100{fill:none;stroke:#000000;stroke-miterlimit:10;}
	.st101{fill:#231F20;}
	.st102{fill:url(#SVGID_00000008124174271621551590000003601482999657231503_);}
	.st103{fill:url(#SVGID_00000013155975997724266670000015839747071983005337_);}
	.st104{fill:url(#SVGID_00000134932019328657702910000014644379351288644499_);}
	.st105{fill:none;stroke:url(#SVGID_00000113353013925711547420000001671367798510435232_);stroke-width:4;stroke-miterlimit:10;}
	.st106{fill:url(#SVGID_00000144315978828808232750000010726069200733476511_);}
	.st107{fill:url(#SVGID_00000001630240003323658300000004391778385248435879_);}
	.st108{fill:url(#SVGID_00000060712193126633612120000011518260043748659362_);}
	.st109{fill:url(#SVGID_00000168116712005618299720000008786931289146236811_);}
	.st110{fill:url(#SVGID_00000093148213876392266440000004941031394965103261_);}
	.st111{fill:url(#SVGID_00000122715651249097685780000002744287275626901154_);}
	.st112{fill:url(#SVGID_00000087391288787439328470000013777773267380550289_);}
	.st113{fill:url(#SVGID_00000075847713438409541520000016145659120292839309_);}
	.st114{fill:url(#SVGID_00000116915982782828576160000004222304830185905838_);}
	.st115{fill:url(#SVGID_00000011711788491072089410000006599222592685187503_);}
	.st116{fill:url(#SVGID_00000107563139376645340730000007850388717974379190_);}
	.st117{fill:url(#SVGID_00000155824729435921359800000004456757332407415979_);}
	.st118{fill:url(#SVGID_00000047739631903052436040000006473471796562368703_);}
	.st119{fill:url(#SVGID_00000096782056575162721490000017593032062042698430_);}
	.st120{fill:url(#SVGID_00000109736059845506007010000015865263772454896786_);}
	.st121{fill:url(#SVGID_00000115478564231483980410000014179780696383360647_);}
	.st122{fill:url(#SVGID_00000163047428242684313920000016489336848562105772_);}
	.st123{fill:url(#SVGID_00000089568324325050782170000011384336268167914390_);}
	.st124{fill:url(#SVGID_00000134222651535074427890000006755679017686629293_);}
	.st125{fill:url(#SVGID_00000065047974718467033870000012433275038452012980_);}
	.st126{fill:url(#SVGID_00000039091911982281719460000006022702350112096917_);}
	.st127{fill:url(#SVGID_00000135682863370126970390000016074243734768562097_);}
	.st128{fill:url(#SVGID_00000148647966398572942030000005432459357530131073_);}
	.st129{fill:url(#SVGID_00000036971764240113002820000000070981701163639941_);}
	.st130{fill:url(#SVGID_00000012451812309386989820000000426832378820992159_);}
	.st131{fill:url(#SVGID_00000117668885103170535640000017795756789872810173_);}
	.st132{fill:url(#SVGID_00000027605198105255101210000001290821608796936337_);}
	.st133{fill:url(#SVGID_00000114763277692870748070000013532491913614577054_);}
	.st134{fill:url(#SVGID_00000144328108934417265200000009542642630535940505_);}
	.st135{fill:url(#SVGID_00000179611325928684369350000016594588482964505276_);}
	.st136{fill:url(#SVGID_00000071530471227110606340000002385945777423023036_);}
	.st137{fill:url(#SVGID_00000078006655766495525710000018083144722064966056_);}
	.st138{fill:url(#SVGID_00000081628974038973509730000012183526791155817886_);}
	.st139{fill:url(#SVGID_00000012448086198682222390000002041684197496047029_);}
	.st140{fill:url(#SVGID_00000102539743712767914780000009946992660524737939_);}
	.st141{fill:url(#SVGID_00000127007976481086928990000012274222605332342440_);}
	.st142{fill:url(#SVGID_00000142856452802657132950000012700131305763513992_);}
	.st143{fill:url(#SVGID_00000034076661103347358820000015970489752703078811_);}
	.st144{fill:url(#SVGID_00000111174313464759160270000014389472067339392661_);}
	.st145{fill:url(#SVGID_00000072271487438443565290000017101408421069574821_);}
	.st146{fill:url(#SVGID_00000172414407218864661490000008429921672690604425_);}
	.st147{fill:url(#SVGID_00000165222039413553770580000001329362828722771868_);}
	.st148{fill:url(#SVGID_00000052088831948639590950000002137566793910940595_);}
	.st149{fill:url(#SVGID_00000054242035937169821520000011582708893527245463_);}
	.st150{fill:url(#SVGID_00000179619148357177386400000011731380545686034096_);}
	.st151{fill:url(#SVGID_00000147912314023253130830000018361100814336670336_);}
	.st152{fill:url(#SVGID_00000178921174882421518940000011182159773679250335_);}
	.st153{fill:url(#SVGID_00000153691892345350874470000007399644470812225978_);}
	.st154{fill:url(#SVGID_00000059297367691742052140000011297985401974976154_);}
	.st155{fill:url(#SVGID_00000035491501235642111260000015829007647276908708_);}
	.st156{fill:url(#SVGID_00000083053737734218739830000012862457223266883465_);}
	.st157{fill:url(#SVGID_00000016055766809679340470000016735841871888128910_);}
	.st158{fill:url(#SVGID_00000164477759802651149310000007387057037446766774_);}
	.st159{fill:url(#SVGID_00000150094997153051010670000007428742321955976840_);}
	.st160{fill:url(#SVGID_00000105394020243751865270000009227374910847737229_);}
	.st161{fill:url(#SVGID_00000078035164546981171960000004319785087062881713_);}
	.st162{fill:url(#SVGID_00000062171838088464190260000014788830865787880089_);}
	.st163{fill:url(#SVGID_00000010302235904660180710000010621141640182899117_);}
	.st164{fill:url(#SVGID_00000016041607742338449510000010509543455418617235_);}
	.st165{fill:url(#SVGID_00000120532972000421475410000018151071889937665670_);}
	.st166{fill:url(#SVGID_00000049205219825528143880000008252912427881344906_);}
	.st167{fill:url(#SVGID_00000158005419482121497180000008064274478812258748_);}
	.st168{fill:url(#SVGID_00000051355248578692639620000015088125372651572626_);}
	.st169{fill:url(#SVGID_00000124867642795969515220000008598101084276963221_);}
	.st170{fill:url(#SVGID_00000181065327063923590130000018443003741272849832_);}
	.st171{fill:url(#SVGID_00000030469657915072374490000005392603144921177992_);}
	.st172{fill:url(#SVGID_00000050626957082978390920000012566384410656427922_);}
	.st173{fill:url(#SVGID_00000151510655473549561370000014091840097490787211_);}
	.st174{fill:url(#SVGID_00000167376664435012700920000004129730069382928282_);}
	.st175{fill:url(#SVGID_00000026123569864917248850000005601187581678190724_);}
	.st176{fill:url(#SVGID_00000119083371957012833170000015537779777766510495_);}
	.st177{fill:url(#SVGID_00000144311456552648783360000014531035202685503639_);}
	.st178{fill:url(#SVGID_00000064352464039211797020000007746399567754900125_);}
	.st179{fill:url(#SVGID_00000161628523699420891990000004201332588775098266_);}
	.st180{fill:url(#SVGID_00000065058850050308285500000001540704088667285689_);}
	.st181{fill:url(#SVGID_00000128459913481117028950000011728283863724989076_);}
	.st182{fill:url(#SVGID_00000075120956813250677880000005718261659288733364_);}
	.st183{fill:url(#SVGID_00000018227876596159539260000002960535100351466662_);}
	.st184{fill:url(#SVGID_00000097501115537942787900000000426510650798988208_);}
	.st185{fill:url(#SVGID_00000145744184636087755640000010263491056718269096_);}
	.st186{fill:url(#SVGID_00000062159583044928354110000014692134773872859042_);}
	.st187{fill:url(#SVGID_00000109027560648303865000000012687977831483093183_);}
	.st188{fill:url(#SVGID_00000073700564268050832930000000534411982261858182_);}
	.st189{fill:url(#SVGID_00000180325627122935221750000002793068898128916642_);}
	.st190{fill:url(#SVGID_00000006701010668161799160000010340501687659305610_);}
	.st191{fill:url(#SVGID_00000136375763140233589180000011843593557929932163_);}
	.st192{fill:url(#SVGID_00000125566238466499882610000000036926157432424856_);}
	.st193{fill:url(#SVGID_00000084503397174369167680000016755545046528235966_);}
	.st194{fill:url(#SVGID_00000103234611480442285680000012713931509950424731_);}
	.st195{fill:url(#SVGID_00000062896101908594557390000009446109056382864259_);}
	.st196{fill:url(#SVGID_00000146464901975444411950000017117827127879716285_);}
	.st197{fill:url(#SVGID_00000096760818496942581040000005192462406079189915_);}
	.st198{fill:url(#SVGID_00000183960516489715161150000000422387050627722135_);}
	.st199{fill:url(#SVGID_00000021810814895121105080000014202375892099348613_);}
	.st200{fill:url(#SVGID_00000029005791549281346020000017438753996994830234_);}
	.st201{fill:url(#SVGID_00000147221135468011239610000013664071544570751653_);}
	.st202{fill:url(#SVGID_00000157266666474221934300000003358346098548076953_);}
	.st203{fill:url(#SVGID_00000041289390399682896770000006378883796217115779_);}
	.st204{fill:url(#SVGID_00000152250523919426301370000006383133478659910301_);}
	.st205{fill:url(#SVGID_00000023259127579495044060000013893892705725366454_);}
	.st206{fill:url(#SVGID_00000075875190166648754630000010594055788803171735_);}
	.st207{fill:url(#SVGID_00000032648646073830055390000003609855989509379484_);}
	.st208{fill:url(#SVGID_00000135680378231403669130000004812109919168365228_);}
	.st209{fill:url(#SVGID_00000158727566440859331860000005934389264537051021_);}
	.st210{fill:url(#SVGID_00000122682179679578730100000011889930176551227583_);}
	.st211{fill:url(#SVGID_00000129200356442810891310000006721344495594211970_);}
	.st212{fill:url(#SVGID_00000030476544571804654280000004558745412973839792_);}
	.st213{fill:url(#SVGID_00000110439084513185505060000004271768197882445243_);}
	.st214{fill:url(#SVGID_00000156566090272471207820000014972541943206498991_);}
	.st215{fill:url(#SVGID_00000126282574736633246470000000939814993744264383_);}
	.st216{fill:url(#SVGID_00000101083219780453859770000017279570634062515355_);}
	.st217{fill:url(#SVGID_00000028310271390157022080000011153440468169446532_);}
	.st218{fill:url(#SVGID_00000047776690574426462420000007330319543405158532_);}
	.st219{fill:url(#SVGID_00000100377119294681873160000012351081703782733446_);}
	.st220{fill:url(#SVGID_00000134224721290242706110000009990448749496671142_);}
	.st221{fill:url(#SVGID_00000147909411858877929270000015926738061886909856_);}
	.st222{fill:url(#SVGID_00000106138054021667985150000015107763301899149729_);}
	.st223{fill:url(#SVGID_00000161603826166021473720000012393285764037738370_);}
	.st224{fill:url(#SVGID_00000033342391099581736960000015725213702113328019_);}
</style>
<g>
	<g>
		<linearGradient id="SVGID_1_" gradientUnits="userSpaceOnUse" x1="89.9098" y1="180.5957" x2="103.2134" y2="166.8194">
			<stop offset="0" style="stop-color:#481212"/>
			<stop offset="0.2958" style="stop-color:#57161E"/>
			<stop offset="0.9169" style="stop-color:#80173A"/>
			<stop offset="1" style="stop-color:#86163E"/>
		</linearGradient>
		<path class="st1" d="M91.52,130.07c-3.56,0-6.94,0.77-9.99,2.14c-1.96,0.88-3.78,2.02-5.42,3.36c-5.48,4.48-8.98,11.28-8.98,18.89    v18.26h17.96v-18.26c0-3.21,2.36-5.88,5.44-6.35c0.33-0.05,0.66-0.08,1-0.08c3.55,0,6.43,2.89,6.43,6.43v48.93    c0,3.55-2.88,6.43-6.43,6.43c-0.34,0-0.67-0.03-1-0.08c-1.32,6.2-4.53,11.71-9,15.9c3.05,1.38,6.43,2.14,9.99,2.14    c13.45,0,24.39-10.94,24.39-24.4v-48.93C115.92,141.01,104.97,130.07,91.52,130.07z"/>
		
			<linearGradient id="SVGID_00000182499063280821184260000008217977349368291240_" gradientUnits="userSpaceOnUse" x1="2602.7148" y1="-3513.1619" x2="2616.0186" y2="-3526.9382" gradientTransform="matrix(-1 0 0 -1 2665.0222 -3335.9087)">
			<stop offset="0" style="stop-color:#481212"/>
			<stop offset="0.2958" style="stop-color:#57161E"/>
			<stop offset="0.9169" style="stop-color:#80173A"/>
			<stop offset="1" style="stop-color:#86163E"/>
		</linearGradient>
		<path style="fill:url(#SVGID_00000182499063280821184260000008217977349368291240_);" d="M60.69,227.78    c3.56,0,6.94-0.77,9.99-2.14c1.96-0.88,3.78-2.02,5.42-3.36c5.48-4.48,8.98-11.28,8.98-18.89v-18.26H67.13v18.26    c0,3.21-2.36,5.88-5.44,6.35c-0.33,0.05-0.66,0.08-1,0.08c-3.55,0-6.43-2.89-6.43-6.43v-48.93c0-3.55,2.88-6.43,6.43-6.43    c0.34,0,0.67,0.03,1,0.08c1.32-6.2,4.53-11.71,9-15.9c-3.05-1.38-6.43-2.14-9.99-2.14c-13.45,0-24.39,10.94-24.39,24.4v48.93    C36.3,216.84,47.24,227.78,60.69,227.78z"/>
	</g>
	<g>
		<g>
			<path class="st6" d="M134.43,222.42l0.22,0.05l-0.79,2.51h-7.15v-0.25h0.35c0.39,0,0.66-0.13,0.84-0.38     c0.1-0.14,0.14-0.48,0.14-1.01v-5.96c0-0.58-0.06-0.94-0.19-1.08c-0.18-0.2-0.44-0.3-0.79-0.3h-0.35v-0.25h4.18V216     c-0.25,0-0.46,0.01-0.62,0.03c-0.17,0.02-0.3,0.06-0.41,0.1c-0.11,0.05-0.19,0.1-0.25,0.16s-0.11,0.13-0.15,0.2     c-0.07,0.14-0.11,0.49-0.11,1.04v5.8c0,0.16,0.01,0.3,0.02,0.41c0.01,0.11,0.03,0.21,0.06,0.28c0.03,0.07,0.06,0.14,0.11,0.18     c0.05,0.05,0.1,0.09,0.18,0.11c0.11,0.05,0.46,0.07,1.06,0.07h0.67c0.7,0,1.2-0.05,1.49-0.16c0.14-0.05,0.28-0.12,0.41-0.2     c0.13-0.09,0.25-0.2,0.37-0.34c0.12-0.14,0.24-0.32,0.35-0.52C134.19,222.96,134.31,222.71,134.43,222.42z"/>
			<path class="st6" d="M137.54,218.56v5.01c0,0.2,0.01,0.36,0.02,0.49c0.01,0.13,0.03,0.23,0.06,0.3c0.03,0.08,0.06,0.14,0.11,0.17     c0.04,0.04,0.09,0.07,0.15,0.11c0.12,0.06,0.32,0.1,0.61,0.1v0.25h-3.03v-0.25c0.15,0,0.28-0.01,0.38-0.02     c0.1-0.01,0.18-0.04,0.24-0.07c0.06-0.03,0.11-0.07,0.14-0.12c0.03-0.05,0.07-0.11,0.1-0.17c0.06-0.14,0.1-0.4,0.1-0.78v-2.4     c0-0.39-0.01-0.71-0.02-0.93c-0.01-0.23-0.04-0.4-0.07-0.51s-0.08-0.18-0.15-0.21c-0.07-0.03-0.15-0.04-0.25-0.04     c-0.13,0-0.28,0.03-0.46,0.1l-0.1-0.25l1.88-0.76H137.54z M136.98,215.29c0.1,0,0.19,0.02,0.27,0.05     c0.08,0.04,0.16,0.09,0.22,0.15c0.06,0.06,0.11,0.13,0.15,0.22c0.04,0.08,0.05,0.17,0.05,0.27c0,0.1-0.02,0.19-0.05,0.27     c-0.04,0.08-0.09,0.16-0.15,0.22c-0.06,0.06-0.13,0.11-0.22,0.15c-0.08,0.04-0.17,0.05-0.27,0.05c-0.1,0-0.18-0.02-0.27-0.05     c-0.08-0.04-0.16-0.09-0.22-0.15c-0.06-0.06-0.11-0.14-0.15-0.22c-0.04-0.08-0.05-0.17-0.05-0.27c0-0.1,0.02-0.18,0.05-0.27     c0.04-0.08,0.09-0.16,0.15-0.22c0.06-0.06,0.14-0.11,0.22-0.15C136.79,215.31,136.88,215.29,136.98,215.29z"/>
			<path class="st6" d="M141.09,219.88c0.73-0.88,1.43-1.32,2.09-1.32c0.23,0,0.45,0.04,0.64,0.12c0.2,0.08,0.37,0.21,0.51,0.39     c0.15,0.18,0.26,0.42,0.34,0.72c0.08,0.3,0.12,0.67,0.12,1.12v2.66c0,0.27,0.01,0.48,0.04,0.63c0.03,0.15,0.08,0.27,0.15,0.35     c0.07,0.08,0.17,0.13,0.29,0.15c0.12,0.02,0.28,0.03,0.46,0.03v0.25h-3.08v-0.25h0.13c0.2,0,0.36-0.02,0.48-0.05     c0.12-0.04,0.2-0.1,0.26-0.19c0.06-0.09,0.1-0.21,0.11-0.36c0.02-0.15,0.02-0.34,0.02-0.57v-2.55c0-0.57-0.07-0.98-0.22-1.24     c-0.15-0.26-0.4-0.38-0.75-0.38c-0.54,0-1.08,0.3-1.61,0.89v3.29c0,0.41,0.03,0.67,0.08,0.78c0.03,0.07,0.07,0.13,0.11,0.18     c0.04,0.05,0.09,0.09,0.16,0.12c0.07,0.03,0.15,0.05,0.26,0.06c0.11,0.01,0.25,0.02,0.42,0.02v0.25h-3.08v-0.25h0.14     c0.16,0,0.3-0.02,0.4-0.05c0.1-0.04,0.19-0.1,0.25-0.19c0.06-0.09,0.1-0.21,0.13-0.36c0.02-0.15,0.03-0.33,0.03-0.56v-2.31     c0-0.74-0.02-1.2-0.05-1.37c-0.03-0.16-0.08-0.27-0.15-0.33c-0.07-0.06-0.16-0.09-0.28-0.09c-0.13,0-0.28,0.03-0.46,0.1     l-0.1-0.25l1.88-0.76h0.29V219.88z"/>
			<path class="st6" d="M148.09,215.29v6.19l1.59-1.43c0.15-0.13,0.26-0.24,0.35-0.32c0.09-0.08,0.15-0.15,0.19-0.2     c0.04-0.05,0.07-0.09,0.08-0.13c0.01-0.03,0.02-0.07,0.02-0.1c0-0.09-0.04-0.17-0.11-0.24c-0.07-0.07-0.2-0.1-0.37-0.11v-0.22     h2.71v0.22c-0.19,0-0.36,0.02-0.51,0.04c-0.15,0.02-0.29,0.06-0.42,0.12c-0.13,0.05-0.27,0.13-0.39,0.22     c-0.13,0.09-0.27,0.21-0.42,0.34l-1.6,1.48l1.6,2.02c0.44,0.56,0.74,0.91,0.9,1.06c0.1,0.1,0.19,0.18,0.26,0.24     c0.08,0.06,0.15,0.11,0.23,0.15c0.08,0.04,0.17,0.06,0.27,0.07c0.1,0.01,0.24,0.02,0.4,0.02v0.25h-3.03v-0.25     c0.17,0,0.29-0.03,0.35-0.08c0.06-0.05,0.09-0.11,0.09-0.2c0-0.11-0.09-0.28-0.27-0.5l-1.91-2.42v2.05c0,0.21,0.01,0.38,0.02,0.5     c0.01,0.13,0.03,0.23,0.06,0.3c0.03,0.07,0.06,0.13,0.1,0.17c0.04,0.04,0.09,0.07,0.14,0.1c0.1,0.05,0.32,0.08,0.68,0.09v0.25     h-3.17v-0.25c0.21,0,0.39-0.01,0.52-0.04c0.13-0.03,0.24-0.08,0.32-0.16c0.08-0.08,0.13-0.19,0.16-0.34     c0.03-0.15,0.04-0.34,0.04-0.58v-5.68c0-0.36,0-0.65-0.01-0.88c-0.01-0.22-0.02-0.37-0.04-0.45c-0.04-0.16-0.09-0.28-0.16-0.34     c-0.07-0.06-0.16-0.09-0.28-0.09c-0.09,0-0.23,0.04-0.43,0.12l-0.12-0.24l1.85-0.76H148.09z"/>
			<path class="st6" d="M155.36,218.56v5.01c0,0.2,0.01,0.36,0.02,0.49c0.01,0.13,0.03,0.23,0.06,0.3c0.03,0.08,0.06,0.14,0.11,0.17     c0.04,0.04,0.09,0.07,0.15,0.11c0.12,0.06,0.32,0.1,0.61,0.1v0.25h-3.03v-0.25c0.15,0,0.28-0.01,0.38-0.02     c0.1-0.01,0.18-0.04,0.24-0.07c0.06-0.03,0.11-0.07,0.14-0.12c0.03-0.05,0.07-0.11,0.1-0.17c0.06-0.14,0.1-0.4,0.1-0.78v-2.4     c0-0.39-0.01-0.71-0.02-0.93c-0.01-0.23-0.04-0.4-0.07-0.51c-0.03-0.11-0.08-0.18-0.15-0.21c-0.07-0.03-0.15-0.04-0.25-0.04     c-0.13,0-0.28,0.03-0.46,0.1l-0.1-0.25l1.88-0.76H155.36z M154.8,215.29c0.1,0,0.19,0.02,0.27,0.05     c0.08,0.04,0.16,0.09,0.22,0.15s0.11,0.13,0.15,0.22c0.04,0.08,0.05,0.17,0.05,0.27c0,0.1-0.02,0.19-0.05,0.27     c-0.04,0.08-0.09,0.16-0.15,0.22c-0.06,0.06-0.13,0.11-0.22,0.15c-0.08,0.04-0.17,0.05-0.27,0.05c-0.1,0-0.18-0.02-0.27-0.05     c-0.08-0.04-0.16-0.09-0.22-0.15c-0.06-0.06-0.11-0.14-0.15-0.22c-0.04-0.08-0.05-0.17-0.05-0.27c0-0.1,0.02-0.18,0.05-0.27     c0.04-0.08,0.09-0.16,0.15-0.22c0.06-0.06,0.14-0.11,0.22-0.15C154.61,215.31,154.7,215.29,154.8,215.29z"/>
			<path class="st6" d="M158.9,219.88c0.73-0.88,1.43-1.32,2.09-1.32c0.23,0,0.45,0.04,0.64,0.12c0.2,0.08,0.37,0.21,0.51,0.39     c0.15,0.18,0.26,0.42,0.34,0.72c0.08,0.3,0.12,0.67,0.12,1.12v2.66c0,0.27,0.01,0.48,0.04,0.63c0.03,0.15,0.08,0.27,0.15,0.35     c0.07,0.08,0.17,0.13,0.29,0.15c0.12,0.02,0.28,0.03,0.46,0.03v0.25h-3.08v-0.25h0.13c0.2,0,0.36-0.02,0.48-0.05     c0.12-0.04,0.2-0.1,0.26-0.19c0.06-0.09,0.1-0.21,0.11-0.36c0.02-0.15,0.02-0.34,0.02-0.57v-2.55c0-0.57-0.07-0.98-0.22-1.24     c-0.15-0.26-0.4-0.38-0.75-0.38c-0.54,0-1.08,0.3-1.61,0.89v3.29c0,0.41,0.03,0.67,0.08,0.78c0.03,0.07,0.07,0.13,0.11,0.18     c0.04,0.05,0.09,0.09,0.16,0.12c0.07,0.03,0.15,0.05,0.26,0.06c0.11,0.01,0.25,0.02,0.42,0.02v0.25h-3.08v-0.25h0.14     c0.16,0,0.3-0.02,0.4-0.05c0.1-0.04,0.19-0.1,0.25-0.19c0.06-0.09,0.1-0.21,0.13-0.36c0.02-0.15,0.03-0.33,0.03-0.56v-2.31     c0-0.74-0.02-1.2-0.05-1.37c-0.03-0.16-0.08-0.27-0.15-0.33c-0.07-0.06-0.16-0.09-0.28-0.09c-0.13,0-0.28,0.03-0.46,0.1     l-0.1-0.25l1.88-0.76h0.29V219.88z"/>
			<path class="st6" d="M165.73,222.7c-0.39-0.19-0.68-0.45-0.88-0.78c-0.2-0.33-0.3-0.7-0.3-1.11c0-0.31,0.06-0.6,0.18-0.87     s0.3-0.51,0.52-0.72c0.22-0.2,0.48-0.37,0.79-0.49c0.3-0.12,0.63-0.18,1-0.18c0.6,0,1.11,0.15,1.55,0.44h1.32     c0.1,0,0.18,0,0.23,0c0.05,0,0.09,0.01,0.12,0.01c0.03,0.01,0.04,0.01,0.04,0.02c0,0.01,0.01,0.02,0.02,0.03     c0.03,0.04,0.04,0.11,0.04,0.22c0,0.07,0,0.12,0,0.17c0,0.04-0.02,0.08-0.04,0.1c-0.02,0.02-0.07,0.04-0.13,0.04     c-0.06,0.01-0.15,0.01-0.28,0.01h-0.81c0.25,0.33,0.38,0.75,0.38,1.25c0,0.29-0.06,0.56-0.17,0.81     c-0.12,0.26-0.28,0.48-0.49,0.67c-0.21,0.19-0.47,0.34-0.78,0.46c-0.3,0.11-0.64,0.17-1.01,0.17c-0.3,0-0.62-0.05-0.95-0.14     c-0.2,0.17-0.34,0.32-0.41,0.45c-0.07,0.13-0.1,0.24-0.1,0.33c0,0.07,0.01,0.13,0.04,0.18c0.03,0.05,0.09,0.09,0.19,0.13     c0.1,0.03,0.25,0.06,0.45,0.08s0.47,0.04,0.82,0.04c0.47,0.01,0.85,0.03,1.15,0.04c0.3,0.01,0.52,0.03,0.66,0.05     c0.21,0.03,0.4,0.08,0.57,0.16c0.17,0.08,0.32,0.18,0.44,0.31c0.12,0.12,0.21,0.26,0.28,0.42c0.07,0.16,0.1,0.33,0.1,0.52     c0,0.51-0.24,0.99-0.72,1.44c-0.71,0.66-1.64,0.99-2.77,0.99c-0.31,0-0.63-0.03-0.95-0.1c-0.32-0.07-0.62-0.16-0.88-0.28     c-0.26-0.12-0.48-0.25-0.65-0.41c-0.17-0.16-0.25-0.33-0.25-0.51c0-0.07,0.01-0.14,0.03-0.21c0.02-0.07,0.05-0.15,0.1-0.22     c0.04-0.08,0.1-0.17,0.17-0.26c0.07-0.09,0.16-0.21,0.26-0.33c0.03-0.04,0.26-0.29,0.69-0.74c-0.24-0.14-0.4-0.27-0.5-0.38     c-0.1-0.11-0.15-0.24-0.15-0.38c0-0.08,0.01-0.17,0.03-0.26c0.02-0.09,0.07-0.19,0.15-0.3c0.08-0.11,0.19-0.24,0.33-0.39     C165.29,223.08,165.49,222.9,165.73,222.7z M165.66,224.98c-0.43,0.47-0.65,0.87-0.65,1.2c0,0.15,0.06,0.29,0.19,0.41     c0.12,0.12,0.29,0.23,0.51,0.31c0.21,0.09,0.46,0.15,0.75,0.2c0.29,0.05,0.59,0.07,0.92,0.07c0.41,0,0.76-0.04,1.07-0.12     c0.3-0.08,0.55-0.19,0.75-0.32c0.2-0.13,0.34-0.27,0.44-0.44c0.1-0.16,0.14-0.32,0.14-0.48c0-0.12-0.02-0.22-0.07-0.3     c-0.05-0.08-0.14-0.15-0.27-0.2c-0.13-0.05-0.31-0.09-0.53-0.12c-0.23-0.03-0.52-0.05-0.87-0.06c-0.51-0.01-0.96-0.03-1.35-0.06     C166.27,225.05,165.94,225.01,165.66,224.98z M166.91,218.88c-0.16,0-0.32,0.03-0.46,0.1c-0.15,0.07-0.27,0.17-0.38,0.3     c-0.11,0.13-0.19,0.3-0.25,0.51s-0.09,0.45-0.09,0.73c0,0.31,0.03,0.59,0.09,0.85c0.06,0.26,0.15,0.48,0.27,0.67     c0.12,0.19,0.26,0.33,0.43,0.44c0.17,0.1,0.36,0.16,0.57,0.16c0.17,0,0.33-0.03,0.48-0.1c0.15-0.06,0.27-0.16,0.37-0.29     c0.1-0.13,0.19-0.3,0.24-0.5c0.06-0.2,0.09-0.44,0.09-0.72c0-0.3-0.03-0.59-0.09-0.85c-0.06-0.26-0.15-0.49-0.27-0.68     c-0.12-0.19-0.26-0.34-0.43-0.45S167.13,218.88,166.91,218.88z"/>
			<path class="st6" d="M176.33,216.69v2.05h1.46v0.48h-1.46v4.04c0,0.2,0.02,0.37,0.05,0.51c0.03,0.13,0.07,0.24,0.13,0.32     c0.05,0.08,0.12,0.13,0.19,0.16s0.16,0.04,0.25,0.04c0.15,0,0.3-0.05,0.44-0.14c0.14-0.09,0.25-0.23,0.33-0.41h0.27     c-0.08,0.22-0.18,0.42-0.3,0.59c-0.12,0.17-0.24,0.31-0.38,0.42c-0.14,0.11-0.28,0.2-0.44,0.25c-0.15,0.06-0.31,0.09-0.46,0.09     c-0.1,0-0.21-0.01-0.32-0.04c-0.11-0.03-0.21-0.07-0.3-0.13c-0.09-0.06-0.18-0.13-0.26-0.21c-0.08-0.08-0.14-0.18-0.18-0.29     c-0.1-0.22-0.14-0.55-0.14-1v-4.19h-0.99v-0.22c0.25-0.1,0.5-0.27,0.77-0.51c0.26-0.24,0.49-0.52,0.7-0.85     c0.05-0.09,0.11-0.21,0.19-0.36c0.07-0.16,0.16-0.35,0.25-0.58H176.33z"/>
			<path class="st6" d="M180.22,215.29v4.56c0.14-0.14,0.29-0.29,0.43-0.44c0.14-0.15,0.3-0.3,0.46-0.42     c0.16-0.13,0.34-0.23,0.53-0.31c0.19-0.08,0.41-0.12,0.66-0.12c0.33,0,0.6,0.07,0.81,0.21c0.21,0.14,0.37,0.33,0.49,0.57     c0.12,0.24,0.2,0.51,0.24,0.81c0.04,0.3,0.06,0.62,0.06,0.94v2.47c0,0.21,0,0.38,0.01,0.53c0.01,0.14,0.04,0.26,0.1,0.35     c0.06,0.09,0.15,0.16,0.27,0.2c0.12,0.05,0.31,0.07,0.55,0.09v0.25h-3.06v-0.25h0.14c0.2,0,0.36-0.02,0.48-0.05     c0.11-0.04,0.2-0.1,0.26-0.19c0.06-0.09,0.1-0.21,0.11-0.36c0.01-0.15,0.02-0.34,0.02-0.57v-2.47c0-0.19,0-0.39-0.01-0.6     c-0.01-0.2-0.04-0.39-0.1-0.55c-0.06-0.17-0.16-0.3-0.3-0.41c-0.14-0.11-0.34-0.16-0.6-0.16c-0.11,0-0.23,0.01-0.34,0.04     c-0.11,0.03-0.23,0.07-0.36,0.14c-0.12,0.07-0.26,0.16-0.4,0.27c-0.14,0.12-0.3,0.26-0.46,0.45v3.3c0,0.22,0,0.4,0.01,0.52     c0.01,0.12,0.03,0.22,0.05,0.29c0.02,0.07,0.06,0.12,0.1,0.15c0.04,0.03,0.1,0.07,0.17,0.1c0.06,0.04,0.15,0.06,0.27,0.08     c0.11,0.02,0.25,0.02,0.41,0.02v0.25h-3.09v-0.25c0.17,0,0.32-0.01,0.44-0.03c0.12-0.02,0.22-0.07,0.3-0.15     c0.08-0.08,0.13-0.19,0.17-0.35c0.03-0.16,0.05-0.37,0.05-0.64v-5.64c0-0.7-0.02-1.14-0.05-1.31c-0.03-0.16-0.08-0.27-0.15-0.33     c-0.07-0.06-0.16-0.09-0.28-0.09c-0.1,0-0.26,0.04-0.46,0.11l-0.1-0.24l1.87-0.76H180.22z"/>
			<path class="st6" d="M186.41,221.09c0,0.46,0.06,0.88,0.18,1.25c0.12,0.37,0.29,0.68,0.5,0.94c0.21,0.26,0.45,0.45,0.73,0.59     c0.27,0.13,0.56,0.2,0.87,0.2c0.41,0,0.76-0.11,1.07-0.34c0.3-0.22,0.55-0.61,0.76-1.15l0.21,0.14c-0.05,0.3-0.15,0.6-0.29,0.9     c-0.14,0.3-0.32,0.56-0.54,0.79c-0.22,0.23-0.48,0.42-0.77,0.56c-0.29,0.14-0.61,0.21-0.96,0.21c-0.37,0-0.72-0.08-1.05-0.23     c-0.33-0.15-0.62-0.37-0.86-0.65c-0.25-0.28-0.44-0.62-0.59-1.01c-0.15-0.4-0.22-0.84-0.22-1.34c0-0.54,0.07-1.02,0.22-1.44     c0.15-0.42,0.35-0.77,0.61-1.07c0.26-0.29,0.56-0.51,0.92-0.66c0.35-0.15,0.73-0.22,1.13-0.22c0.35,0,0.66,0.06,0.96,0.18     c0.29,0.12,0.55,0.29,0.76,0.51c0.21,0.22,0.38,0.49,0.5,0.8c0.12,0.31,0.18,0.66,0.18,1.04H186.41z M186.41,220.69h2.89     c-0.02-0.4-0.07-0.68-0.14-0.84c-0.11-0.25-0.28-0.45-0.51-0.6c-0.22-0.14-0.46-0.22-0.7-0.22c-0.19,0-0.37,0.04-0.54,0.11     c-0.17,0.07-0.33,0.18-0.47,0.33c-0.14,0.14-0.26,0.32-0.35,0.52C186.49,220.2,186.43,220.43,186.41,220.69z"/>
			<path class="st6" d="M196.87,215.29v4.56c0.14-0.14,0.29-0.29,0.43-0.44s0.3-0.3,0.46-0.42c0.16-0.13,0.34-0.23,0.53-0.31     c0.19-0.08,0.41-0.12,0.66-0.12c0.33,0,0.6,0.07,0.81,0.21c0.21,0.14,0.37,0.33,0.49,0.57c0.12,0.24,0.2,0.51,0.24,0.81     c0.04,0.3,0.06,0.62,0.06,0.94v2.47c0,0.21,0,0.38,0.01,0.53c0.01,0.14,0.04,0.26,0.1,0.35c0.06,0.09,0.15,0.16,0.27,0.2     c0.12,0.05,0.31,0.07,0.55,0.09v0.25h-3.06v-0.25h0.14c0.2,0,0.36-0.02,0.48-0.05c0.11-0.04,0.2-0.1,0.26-0.19     c0.06-0.09,0.1-0.21,0.11-0.36c0.01-0.15,0.02-0.34,0.02-0.57v-2.47c0-0.19,0-0.39-0.01-0.6c-0.01-0.2-0.04-0.39-0.1-0.55     c-0.06-0.17-0.16-0.3-0.3-0.41c-0.14-0.11-0.34-0.16-0.6-0.16c-0.11,0-0.23,0.01-0.34,0.04c-0.11,0.03-0.23,0.07-0.36,0.14     c-0.12,0.07-0.26,0.16-0.4,0.27c-0.14,0.12-0.3,0.26-0.46,0.45v3.3c0,0.22,0,0.4,0.01,0.52c0.01,0.12,0.03,0.22,0.05,0.29     c0.02,0.07,0.06,0.12,0.1,0.15c0.04,0.03,0.1,0.07,0.17,0.1c0.06,0.04,0.15,0.06,0.27,0.08c0.11,0.02,0.25,0.02,0.41,0.02v0.25     h-3.09v-0.25c0.17,0,0.32-0.01,0.44-0.03c0.12-0.02,0.22-0.07,0.3-0.15c0.08-0.08,0.13-0.19,0.17-0.35     c0.03-0.16,0.05-0.37,0.05-0.64v-5.64c0-0.7-0.02-1.14-0.05-1.31c-0.03-0.16-0.08-0.27-0.15-0.33c-0.07-0.06-0.16-0.09-0.28-0.09     c-0.1,0-0.26,0.04-0.46,0.11l-0.1-0.24l1.87-0.76H196.87z"/>
			<path class="st6" d="M203.06,221.09c0,0.46,0.06,0.88,0.18,1.25c0.12,0.37,0.29,0.68,0.5,0.94c0.21,0.26,0.45,0.45,0.73,0.59     c0.27,0.13,0.56,0.2,0.87,0.2c0.41,0,0.76-0.11,1.07-0.34c0.3-0.22,0.55-0.61,0.76-1.15l0.21,0.14c-0.05,0.3-0.15,0.6-0.29,0.9     c-0.14,0.3-0.32,0.56-0.54,0.79c-0.22,0.23-0.48,0.42-0.77,0.56c-0.29,0.14-0.61,0.21-0.96,0.21c-0.37,0-0.72-0.08-1.05-0.23     c-0.33-0.15-0.62-0.37-0.86-0.65c-0.25-0.28-0.44-0.62-0.59-1.01c-0.15-0.4-0.22-0.84-0.22-1.34c0-0.54,0.07-1.02,0.22-1.44     c0.15-0.42,0.35-0.77,0.61-1.07c0.26-0.29,0.56-0.51,0.92-0.66c0.35-0.15,0.73-0.22,1.13-0.22c0.35,0,0.66,0.06,0.96,0.18     c0.29,0.12,0.55,0.29,0.76,0.51c0.21,0.22,0.38,0.49,0.5,0.8c0.12,0.31,0.18,0.66,0.18,1.04H203.06z M203.06,220.69h2.89     c-0.02-0.4-0.07-0.68-0.14-0.84c-0.11-0.25-0.28-0.45-0.51-0.6c-0.22-0.14-0.46-0.22-0.7-0.22c-0.19,0-0.37,0.04-0.54,0.11     c-0.17,0.07-0.33,0.18-0.47,0.33c-0.14,0.14-0.26,0.32-0.35,0.52C203.14,220.2,203.08,220.43,203.06,220.69z"/>
			<path class="st6" d="M211.73,224.08c-0.64,0.5-1.04,0.79-1.21,0.86c-0.24,0.11-0.5,0.17-0.78,0.17c-0.21,0-0.41-0.04-0.59-0.12     c-0.18-0.08-0.34-0.19-0.47-0.33c-0.13-0.14-0.23-0.31-0.31-0.51c-0.07-0.2-0.11-0.42-0.11-0.66c0-0.18,0.02-0.34,0.07-0.49     c0.05-0.15,0.12-0.29,0.21-0.43c0.1-0.13,0.22-0.26,0.36-0.38c0.15-0.12,0.32-0.24,0.52-0.36c0.47-0.28,1.23-0.61,2.3-0.99v-0.25     c0-0.31-0.03-0.57-0.08-0.78c-0.05-0.21-0.13-0.38-0.22-0.5c-0.1-0.12-0.22-0.21-0.36-0.27c-0.15-0.05-0.31-0.08-0.49-0.08     c-0.15,0-0.28,0.02-0.39,0.06c-0.12,0.04-0.21,0.1-0.3,0.17c-0.08,0.07-0.14,0.15-0.19,0.24c-0.04,0.09-0.06,0.19-0.06,0.28     l0.01,0.4c0,0.21-0.05,0.37-0.16,0.48s-0.25,0.17-0.42,0.17c-0.17,0-0.31-0.06-0.41-0.18c-0.11-0.12-0.16-0.28-0.16-0.48     c0-0.19,0.05-0.38,0.15-0.56c0.1-0.19,0.25-0.35,0.44-0.5c0.19-0.15,0.43-0.27,0.71-0.36c0.28-0.09,0.61-0.14,0.97-0.14     c0.48,0,0.89,0.07,1.23,0.21c0.34,0.14,0.58,0.38,0.73,0.73c0.08,0.2,0.12,0.6,0.12,1.2v2.12c0,0.3,0,0.54,0.01,0.72     c0.01,0.18,0.01,0.31,0.02,0.37c0.02,0.13,0.06,0.22,0.11,0.27c0.05,0.05,0.11,0.07,0.18,0.07c0.05,0,0.09-0.01,0.13-0.02     c0.04-0.01,0.09-0.04,0.14-0.08c0.05-0.04,0.12-0.1,0.19-0.17s0.17-0.16,0.28-0.28v0.38c-0.51,0.68-1,1.02-1.46,1.02     c-0.22,0-0.4-0.08-0.53-0.23C211.8,224.71,211.73,224.45,211.73,224.08z M211.73,223.64v-2.38c-0.35,0.14-0.63,0.25-0.85,0.35     c-0.22,0.1-0.38,0.17-0.48,0.23c-0.36,0.2-0.61,0.41-0.77,0.63c-0.15,0.22-0.23,0.45-0.23,0.71c0,0.16,0.03,0.31,0.08,0.45     c0.05,0.14,0.12,0.26,0.21,0.36c0.09,0.1,0.19,0.18,0.31,0.24c0.12,0.06,0.24,0.09,0.37,0.09     C210.72,224.32,211.17,224.09,211.73,223.64z"/>
			<path class="st6" d="M216.53,215.29v8.27c0,0.2,0.01,0.36,0.02,0.49c0.01,0.13,0.03,0.22,0.06,0.3c0.03,0.07,0.06,0.13,0.11,0.17     c0.04,0.04,0.1,0.08,0.16,0.11c0.11,0.06,0.33,0.1,0.66,0.1v0.25h-3.06v-0.25c0.2,0,0.37-0.02,0.49-0.05     c0.12-0.03,0.21-0.09,0.28-0.18s0.11-0.2,0.13-0.35c0.02-0.15,0.03-0.35,0.03-0.59v-5.66c0-0.35,0-0.64-0.01-0.85     c-0.01-0.22-0.02-0.36-0.04-0.44c-0.04-0.16-0.09-0.27-0.16-0.33c-0.07-0.06-0.16-0.09-0.27-0.09c-0.12,0-0.27,0.04-0.45,0.11     l-0.12-0.24l1.86-0.76H216.53z"/>
			<path class="st6" d="M220.08,216.69v2.05h1.46v0.48h-1.46v4.04c0,0.2,0.02,0.37,0.05,0.51c0.03,0.13,0.07,0.24,0.13,0.32     c0.05,0.08,0.12,0.13,0.19,0.16c0.07,0.03,0.16,0.04,0.25,0.04c0.15,0,0.3-0.05,0.44-0.14c0.14-0.09,0.25-0.23,0.33-0.41h0.27     c-0.08,0.22-0.18,0.42-0.3,0.59c-0.12,0.17-0.24,0.31-0.38,0.42c-0.14,0.11-0.28,0.2-0.44,0.25c-0.15,0.06-0.31,0.09-0.46,0.09     c-0.1,0-0.21-0.01-0.32-0.04c-0.11-0.03-0.21-0.07-0.3-0.13c-0.09-0.06-0.18-0.13-0.26-0.21c-0.08-0.08-0.14-0.18-0.18-0.29     c-0.1-0.22-0.14-0.55-0.14-1v-4.19h-0.99v-0.22c0.25-0.1,0.5-0.27,0.77-0.51c0.26-0.24,0.49-0.52,0.7-0.85     c0.05-0.09,0.11-0.21,0.19-0.36c0.07-0.16,0.16-0.35,0.25-0.58H220.08z"/>
			<path class="st6" d="M223.97,215.29v4.56c0.14-0.14,0.29-0.29,0.43-0.44s0.3-0.3,0.46-0.42c0.16-0.13,0.34-0.23,0.53-0.31     c0.19-0.08,0.41-0.12,0.66-0.12c0.33,0,0.6,0.07,0.81,0.21c0.21,0.14,0.37,0.33,0.49,0.57c0.12,0.24,0.2,0.51,0.24,0.81     c0.04,0.3,0.06,0.62,0.06,0.94v2.47c0,0.21,0,0.38,0.01,0.53c0.01,0.14,0.04,0.26,0.1,0.35c0.06,0.09,0.15,0.16,0.27,0.2     c0.12,0.05,0.31,0.07,0.55,0.09v0.25h-3.06v-0.25h0.14c0.2,0,0.36-0.02,0.48-0.05c0.11-0.04,0.2-0.1,0.26-0.19     c0.06-0.09,0.1-0.21,0.11-0.36c0.01-0.15,0.02-0.34,0.02-0.57v-2.47c0-0.19,0-0.39-0.01-0.6c-0.01-0.2-0.04-0.39-0.1-0.55     c-0.06-0.17-0.16-0.3-0.3-0.41c-0.14-0.11-0.34-0.16-0.6-0.16c-0.11,0-0.23,0.01-0.34,0.04c-0.11,0.03-0.23,0.07-0.36,0.14     c-0.12,0.07-0.26,0.16-0.4,0.27c-0.14,0.12-0.3,0.26-0.46,0.45v3.3c0,0.22,0,0.4,0.01,0.52c0.01,0.12,0.03,0.22,0.05,0.29     c0.02,0.07,0.06,0.12,0.1,0.15c0.04,0.03,0.1,0.07,0.17,0.1c0.06,0.04,0.15,0.06,0.27,0.08c0.11,0.02,0.25,0.02,0.41,0.02v0.25     h-3.09v-0.25c0.17,0,0.32-0.01,0.44-0.03c0.12-0.02,0.22-0.07,0.3-0.15c0.08-0.08,0.13-0.19,0.17-0.35     c0.03-0.16,0.05-0.37,0.05-0.64v-5.64c0-0.7-0.02-1.14-0.05-1.31c-0.03-0.16-0.08-0.27-0.15-0.33c-0.07-0.06-0.16-0.09-0.28-0.09     c-0.1,0-0.26,0.04-0.46,0.11l-0.1-0.24l1.87-0.76H223.97z"/>
			<path class="st6" d="M234.41,222.61c-0.09,0.41-0.22,0.78-0.39,1.1c-0.17,0.32-0.37,0.59-0.61,0.8     c-0.23,0.22-0.49,0.38-0.76,0.49c-0.28,0.11-0.56,0.17-0.86,0.17c-0.35,0-0.68-0.08-1-0.23c-0.32-0.15-0.6-0.37-0.84-0.66     c-0.24-0.29-0.44-0.63-0.58-1.04c-0.15-0.41-0.22-0.86-0.22-1.37c0-0.49,0.08-0.94,0.24-1.34c0.16-0.41,0.37-0.75,0.64-1.04     c0.27-0.29,0.59-0.52,0.95-0.68c0.36-0.16,0.74-0.24,1.15-0.24c0.3,0,0.58,0.05,0.84,0.14c0.26,0.09,0.48,0.21,0.66,0.35     c0.19,0.15,0.33,0.31,0.44,0.48c0.11,0.18,0.16,0.35,0.16,0.52c0,0.17-0.05,0.31-0.16,0.42c-0.11,0.11-0.27,0.16-0.47,0.16     c-0.1,0-0.2-0.01-0.29-0.03c-0.09-0.02-0.17-0.06-0.23-0.12c-0.07-0.06-0.12-0.14-0.16-0.24c-0.04-0.1-0.07-0.24-0.08-0.4     c-0.02-0.27-0.11-0.47-0.27-0.61c-0.16-0.14-0.38-0.21-0.66-0.21c-0.27,0-0.5,0.06-0.71,0.18c-0.2,0.12-0.38,0.28-0.52,0.49     c-0.14,0.21-0.25,0.45-0.32,0.72c-0.07,0.27-0.11,0.57-0.11,0.87c0,0.36,0.05,0.71,0.14,1.05c0.09,0.34,0.23,0.64,0.4,0.9     c0.17,0.26,0.39,0.47,0.64,0.63c0.25,0.16,0.53,0.24,0.85,0.24c0.19,0,0.37-0.02,0.54-0.07c0.17-0.05,0.34-0.13,0.5-0.25     c0.16-0.12,0.31-0.28,0.46-0.49c0.15-0.21,0.29-0.47,0.43-0.79L234.41,222.61z"/>
			<path class="st6" d="M238.83,224.08c-0.64,0.5-1.04,0.79-1.21,0.86c-0.24,0.11-0.5,0.17-0.78,0.17c-0.21,0-0.41-0.04-0.59-0.12     c-0.18-0.08-0.34-0.19-0.47-0.33c-0.13-0.14-0.23-0.31-0.31-0.51c-0.07-0.2-0.11-0.42-0.11-0.66c0-0.18,0.02-0.34,0.07-0.49     c0.05-0.15,0.12-0.29,0.21-0.43c0.1-0.13,0.22-0.26,0.36-0.38c0.15-0.12,0.32-0.24,0.52-0.36c0.47-0.28,1.23-0.61,2.3-0.99v-0.25     c0-0.31-0.03-0.57-0.08-0.78c-0.05-0.21-0.13-0.38-0.22-0.5c-0.1-0.12-0.22-0.21-0.36-0.27c-0.15-0.05-0.31-0.08-0.49-0.08     c-0.15,0-0.28,0.02-0.39,0.06c-0.12,0.04-0.21,0.1-0.3,0.17c-0.08,0.07-0.14,0.15-0.19,0.24c-0.04,0.09-0.06,0.19-0.06,0.28     l0.01,0.4c0,0.21-0.05,0.37-0.16,0.48c-0.11,0.11-0.25,0.17-0.42,0.17c-0.17,0-0.31-0.06-0.41-0.18     c-0.11-0.12-0.16-0.28-0.16-0.48c0-0.19,0.05-0.38,0.15-0.56c0.1-0.19,0.25-0.35,0.44-0.5c0.19-0.15,0.43-0.27,0.71-0.36     c0.28-0.09,0.61-0.14,0.97-0.14c0.48,0,0.89,0.07,1.23,0.21c0.34,0.14,0.58,0.38,0.73,0.73c0.08,0.2,0.12,0.6,0.12,1.2v2.12     c0,0.3,0,0.54,0.01,0.72c0.01,0.18,0.01,0.31,0.02,0.37c0.02,0.13,0.06,0.22,0.11,0.27c0.05,0.05,0.11,0.07,0.18,0.07     c0.05,0,0.09-0.01,0.13-0.02c0.04-0.01,0.09-0.04,0.14-0.08c0.05-0.04,0.12-0.1,0.19-0.17s0.17-0.16,0.28-0.28v0.38     c-0.51,0.68-1,1.02-1.46,1.02c-0.22,0-0.4-0.08-0.53-0.23C238.9,224.71,238.83,224.45,238.83,224.08z M238.83,223.64v-2.38     c-0.35,0.14-0.63,0.25-0.85,0.35c-0.22,0.1-0.38,0.17-0.48,0.23c-0.36,0.2-0.61,0.41-0.77,0.63c-0.15,0.22-0.23,0.45-0.23,0.71     c0,0.16,0.03,0.31,0.08,0.45c0.05,0.14,0.12,0.26,0.21,0.36c0.09,0.1,0.19,0.18,0.31,0.24c0.12,0.06,0.24,0.09,0.37,0.09     C237.82,224.32,238.27,224.09,238.83,223.64z"/>
			<path class="st6" d="M243.31,218.56v1.4c0.53-0.94,1.06-1.4,1.61-1.4c0.12,0,0.24,0.02,0.34,0.06s0.2,0.1,0.28,0.17     c0.08,0.07,0.14,0.15,0.18,0.24c0.04,0.09,0.06,0.19,0.06,0.29c0,0.18-0.06,0.33-0.18,0.45c-0.12,0.12-0.26,0.18-0.42,0.18     c-0.08,0-0.16-0.02-0.26-0.07c-0.1-0.05-0.19-0.1-0.28-0.16c-0.09-0.06-0.18-0.11-0.26-0.16c-0.08-0.05-0.14-0.07-0.18-0.07     c-0.06,0-0.12,0.03-0.2,0.08c-0.07,0.05-0.15,0.12-0.22,0.22c-0.08,0.09-0.16,0.2-0.24,0.33c-0.08,0.13-0.16,0.27-0.24,0.43v2.99     c0,0.19,0.01,0.35,0.03,0.5c0.02,0.15,0.07,0.28,0.15,0.38c0.07,0.1,0.19,0.19,0.33,0.24c0.14,0.06,0.34,0.09,0.58,0.09v0.25     h-3.19v-0.25c0.2,0,0.36-0.01,0.49-0.04c0.13-0.03,0.23-0.08,0.3-0.16c0.07-0.08,0.12-0.2,0.15-0.35     c0.03-0.15,0.04-0.35,0.04-0.6v-2.42c0-0.74-0.02-1.17-0.05-1.29c-0.06-0.27-0.21-0.4-0.46-0.4c-0.14,0-0.3,0.03-0.48,0.1     l-0.07-0.25l1.89-0.76H243.31z"/>
			<path class="st6" d="M247.18,221.09c0,0.46,0.06,0.88,0.18,1.25c0.12,0.37,0.29,0.68,0.5,0.94c0.21,0.26,0.45,0.45,0.73,0.59     c0.27,0.13,0.56,0.2,0.87,0.2c0.41,0,0.76-0.11,1.07-0.34c0.3-0.22,0.55-0.61,0.76-1.15l0.21,0.14c-0.05,0.3-0.15,0.6-0.29,0.9     c-0.14,0.3-0.32,0.56-0.54,0.79s-0.48,0.42-0.77,0.56c-0.29,0.14-0.61,0.21-0.96,0.21c-0.37,0-0.72-0.08-1.05-0.23     c-0.33-0.15-0.62-0.37-0.86-0.65c-0.25-0.28-0.44-0.62-0.59-1.01c-0.15-0.4-0.22-0.84-0.22-1.34c0-0.54,0.07-1.02,0.22-1.44     c0.15-0.42,0.35-0.77,0.61-1.07c0.26-0.29,0.56-0.51,0.92-0.66c0.35-0.15,0.73-0.22,1.13-0.22c0.35,0,0.66,0.06,0.96,0.18     c0.29,0.12,0.55,0.29,0.76,0.51c0.21,0.22,0.38,0.49,0.5,0.8c0.12,0.31,0.18,0.66,0.18,1.04H247.18z M247.18,220.69h2.89     c-0.02-0.4-0.07-0.68-0.14-0.84c-0.11-0.25-0.28-0.45-0.51-0.6c-0.22-0.14-0.46-0.22-0.7-0.22c-0.19,0-0.37,0.04-0.54,0.11     c-0.17,0.07-0.33,0.18-0.47,0.33c-0.14,0.14-0.26,0.32-0.35,0.52C247.26,220.2,247.2,220.43,247.18,220.69z"/>
			<path class="st6" d="M261.11,222.61c-0.09,0.41-0.22,0.78-0.39,1.1c-0.17,0.32-0.37,0.59-0.61,0.8     c-0.23,0.22-0.49,0.38-0.76,0.49c-0.28,0.11-0.56,0.17-0.86,0.17c-0.35,0-0.68-0.08-1-0.23c-0.32-0.15-0.6-0.37-0.84-0.66     c-0.24-0.29-0.44-0.63-0.58-1.04c-0.15-0.41-0.22-0.86-0.22-1.37c0-0.49,0.08-0.94,0.24-1.34c0.16-0.41,0.37-0.75,0.64-1.04     c0.27-0.29,0.59-0.52,0.95-0.68c0.36-0.16,0.74-0.24,1.15-0.24c0.3,0,0.58,0.05,0.84,0.14c0.26,0.09,0.48,0.21,0.66,0.35     c0.19,0.15,0.33,0.31,0.44,0.48c0.11,0.18,0.16,0.35,0.16,0.52c0,0.17-0.05,0.31-0.16,0.42c-0.11,0.11-0.27,0.16-0.47,0.16     c-0.1,0-0.2-0.01-0.29-0.03c-0.09-0.02-0.17-0.06-0.23-0.12c-0.07-0.06-0.12-0.14-0.16-0.24c-0.04-0.1-0.07-0.24-0.08-0.4     c-0.02-0.27-0.11-0.47-0.27-0.61c-0.16-0.14-0.38-0.21-0.66-0.21c-0.27,0-0.5,0.06-0.71,0.18c-0.2,0.12-0.38,0.28-0.52,0.49     c-0.14,0.21-0.25,0.45-0.32,0.72c-0.07,0.27-0.11,0.57-0.11,0.87c0,0.36,0.05,0.71,0.14,1.05c0.09,0.34,0.23,0.64,0.4,0.9     c0.17,0.26,0.39,0.47,0.64,0.63c0.25,0.16,0.53,0.24,0.85,0.24c0.19,0,0.37-0.02,0.54-0.07c0.17-0.05,0.34-0.13,0.5-0.25     c0.16-0.12,0.31-0.28,0.46-0.49c0.15-0.21,0.29-0.47,0.43-0.79L261.11,222.61z"/>
			<path class="st6" d="M265.05,218.56c0.44,0,0.84,0.09,1.21,0.26c0.37,0.17,0.68,0.4,0.95,0.69c0.27,0.29,0.47,0.63,0.62,1.01     c0.15,0.39,0.22,0.79,0.22,1.22c0,0.45-0.08,0.88-0.23,1.29c-0.15,0.41-0.36,0.78-0.64,1.09c-0.27,0.32-0.6,0.57-0.97,0.76     c-0.38,0.19-0.79,0.28-1.24,0.28c-0.44,0-0.84-0.09-1.2-0.27c-0.36-0.18-0.67-0.42-0.93-0.73c-0.26-0.3-0.46-0.65-0.6-1.04     c-0.14-0.39-0.21-0.79-0.21-1.21c0-0.42,0.07-0.84,0.22-1.24c0.15-0.4,0.35-0.76,0.62-1.08c0.27-0.32,0.58-0.57,0.95-0.76     C264.19,218.65,264.6,218.56,265.05,218.56z M264.84,219c-0.2,0-0.39,0.04-0.58,0.13c-0.18,0.08-0.35,0.22-0.49,0.41     c-0.14,0.19-0.26,0.43-0.34,0.73c-0.09,0.3-0.13,0.66-0.13,1.09c0,0.44,0.05,0.86,0.14,1.27c0.09,0.4,0.22,0.76,0.39,1.07     c0.17,0.31,0.38,0.55,0.62,0.73c0.24,0.18,0.51,0.27,0.81,0.27c0.22,0,0.42-0.04,0.6-0.13c0.18-0.08,0.34-0.22,0.48-0.41     c0.14-0.19,0.24-0.44,0.32-0.75c0.08-0.31,0.12-0.69,0.12-1.14c0-0.45-0.04-0.87-0.13-1.27c-0.09-0.4-0.21-0.74-0.38-1.04     c-0.17-0.3-0.37-0.53-0.61-0.7C265.42,219.09,265.15,219,264.84,219z"/>
			<path class="st6" d="M270.82,219.88c0.45-0.45,0.72-0.71,0.8-0.78c0.2-0.17,0.42-0.31,0.66-0.4c0.24-0.1,0.47-0.14,0.7-0.14     c0.39,0,0.73,0.11,1.01,0.34c0.28,0.22,0.47,0.55,0.56,0.99c0.47-0.54,0.86-0.9,1.18-1.07c0.32-0.17,0.65-0.26,0.99-0.26     c0.23,0,0.44,0.04,0.64,0.12c0.2,0.08,0.37,0.21,0.52,0.38s0.26,0.42,0.35,0.72c0.09,0.3,0.13,0.67,0.13,1.11v2.68     c0,0.2,0.01,0.38,0.02,0.53c0.01,0.15,0.05,0.27,0.11,0.36c0.06,0.1,0.15,0.16,0.28,0.21c0.13,0.04,0.31,0.06,0.54,0.06v0.25     h-3.08v-0.25h0.13c0.23,0,0.41-0.04,0.55-0.11c0.14-0.07,0.24-0.2,0.3-0.4c0.02-0.07,0.03-0.29,0.03-0.66v-2.68     c0-0.3-0.02-0.55-0.07-0.74c-0.05-0.19-0.11-0.35-0.2-0.46c-0.09-0.12-0.2-0.2-0.32-0.24c-0.13-0.05-0.27-0.07-0.44-0.07     c-0.12,0-0.24,0.01-0.36,0.04c-0.12,0.03-0.24,0.07-0.36,0.14c-0.13,0.07-0.26,0.16-0.41,0.27c-0.15,0.11-0.31,0.25-0.49,0.42     l0.01,3.32c0,0.22,0,0.4,0.01,0.52c0.01,0.12,0.03,0.22,0.05,0.29s0.06,0.11,0.11,0.15c0.05,0.03,0.1,0.07,0.17,0.11     c0.06,0.04,0.15,0.06,0.27,0.08c0.11,0.02,0.25,0.02,0.41,0.02v0.25h-3.15v-0.25c0.25,0,0.44-0.02,0.58-0.05     c0.14-0.03,0.24-0.1,0.3-0.18c0.06-0.09,0.1-0.21,0.12-0.36c0.01-0.15,0.02-0.34,0.02-0.57v-2.68c0-0.29-0.03-0.53-0.08-0.73     c-0.05-0.2-0.13-0.35-0.22-0.47c-0.1-0.12-0.21-0.2-0.34-0.26c-0.13-0.05-0.27-0.08-0.43-0.08c-0.15,0-0.3,0.03-0.46,0.09     c-0.16,0.06-0.31,0.13-0.45,0.21c-0.14,0.08-0.27,0.18-0.39,0.28c-0.12,0.1-0.22,0.2-0.29,0.3v3.34c0,0.21,0.01,0.38,0.02,0.51     c0.01,0.12,0.03,0.22,0.06,0.3c0.03,0.07,0.06,0.13,0.11,0.17c0.04,0.04,0.09,0.07,0.15,0.1c0.11,0.06,0.34,0.09,0.68,0.09v0.25     h-3.08v-0.25c0.21,0,0.38-0.02,0.5-0.05c0.12-0.03,0.22-0.09,0.29-0.17c0.07-0.08,0.11-0.2,0.13-0.35     c0.02-0.15,0.03-0.35,0.03-0.59v-2.38c0-0.4-0.01-0.72-0.02-0.95c-0.01-0.23-0.04-0.4-0.07-0.52c-0.04-0.12-0.09-0.19-0.15-0.21     c-0.06-0.03-0.15-0.04-0.24-0.04c-0.13,0-0.28,0.03-0.46,0.1l-0.1-0.25l1.88-0.76h0.29V219.88z"/>
			<path class="st6" d="M281.67,219.88c0.45-0.45,0.72-0.71,0.8-0.78c0.2-0.17,0.42-0.31,0.66-0.4c0.24-0.1,0.47-0.14,0.7-0.14     c0.39,0,0.73,0.11,1.01,0.34c0.28,0.22,0.47,0.55,0.56,0.99c0.47-0.54,0.86-0.9,1.18-1.07c0.32-0.17,0.65-0.26,0.99-0.26     c0.23,0,0.44,0.04,0.64,0.12c0.2,0.08,0.37,0.21,0.52,0.38c0.15,0.18,0.26,0.42,0.35,0.72c0.09,0.3,0.13,0.67,0.13,1.11v2.68     c0,0.2,0.01,0.38,0.02,0.53c0.01,0.15,0.05,0.27,0.11,0.36c0.06,0.1,0.15,0.16,0.28,0.21c0.13,0.04,0.31,0.06,0.54,0.06v0.25     h-3.08v-0.25h0.13c0.23,0,0.41-0.04,0.55-0.11c0.14-0.07,0.24-0.2,0.3-0.4c0.02-0.07,0.03-0.29,0.03-0.66v-2.68     c0-0.3-0.02-0.55-0.07-0.74c-0.05-0.19-0.11-0.35-0.2-0.46c-0.09-0.12-0.2-0.2-0.32-0.24c-0.13-0.05-0.27-0.07-0.44-0.07     c-0.12,0-0.24,0.01-0.36,0.04c-0.12,0.03-0.24,0.07-0.36,0.14c-0.13,0.07-0.26,0.16-0.41,0.27c-0.15,0.11-0.31,0.25-0.49,0.42     l0.01,3.32c0,0.22,0,0.4,0.01,0.52c0.01,0.12,0.03,0.22,0.05,0.29c0.02,0.07,0.06,0.11,0.11,0.15c0.05,0.03,0.1,0.07,0.17,0.11     c0.06,0.04,0.15,0.06,0.27,0.08c0.11,0.02,0.25,0.02,0.41,0.02v0.25h-3.15v-0.25c0.25,0,0.44-0.02,0.58-0.05     c0.14-0.03,0.24-0.1,0.3-0.18c0.06-0.09,0.1-0.21,0.12-0.36c0.01-0.15,0.02-0.34,0.02-0.57v-2.68c0-0.29-0.03-0.53-0.08-0.73     c-0.05-0.2-0.13-0.35-0.22-0.47c-0.1-0.12-0.21-0.2-0.34-0.26c-0.13-0.05-0.27-0.08-0.43-0.08c-0.15,0-0.3,0.03-0.46,0.09     c-0.16,0.06-0.31,0.13-0.45,0.21c-0.14,0.08-0.27,0.18-0.39,0.28c-0.12,0.1-0.22,0.2-0.29,0.3v3.34c0,0.21,0.01,0.38,0.02,0.51     c0.01,0.12,0.03,0.22,0.06,0.3c0.03,0.07,0.06,0.13,0.11,0.17c0.04,0.04,0.09,0.07,0.15,0.1c0.11,0.06,0.34,0.09,0.68,0.09v0.25     h-3.08v-0.25c0.21,0,0.38-0.02,0.5-0.05c0.12-0.03,0.22-0.09,0.29-0.17c0.07-0.08,0.11-0.2,0.13-0.35     c0.02-0.15,0.03-0.35,0.03-0.59v-2.38c0-0.4-0.01-0.72-0.02-0.95c-0.01-0.23-0.04-0.4-0.07-0.52c-0.04-0.12-0.09-0.19-0.15-0.21     c-0.06-0.03-0.15-0.04-0.24-0.04c-0.13,0-0.28,0.03-0.46,0.1l-0.1-0.25l1.88-0.76h0.29V219.88z"/>
			<path class="st6" d="M296.13,218.74v3.78c0,0.73,0.02,1.17,0.05,1.33c0.04,0.16,0.09,0.27,0.17,0.33c0.07,0.06,0.16,0.1,0.26,0.1     c0.14,0,0.3-0.04,0.48-0.12l0.1,0.24l-1.87,0.77h-0.31v-1.32c-0.54,0.58-0.95,0.95-1.23,1.1c-0.28,0.15-0.58,0.22-0.89,0.22     c-0.35,0-0.65-0.1-0.91-0.3c-0.25-0.2-0.43-0.46-0.54-0.79c-0.1-0.31-0.15-0.76-0.15-1.35v-2.78c0-0.2-0.02-0.37-0.05-0.5     c-0.03-0.13-0.09-0.22-0.17-0.29c-0.08-0.07-0.18-0.11-0.3-0.14c-0.12-0.02-0.28-0.03-0.45-0.03h-0.08v-0.25h2.19v4.17     c0,0.3,0.03,0.54,0.09,0.73c0.06,0.19,0.13,0.33,0.23,0.43c0.1,0.1,0.21,0.17,0.33,0.2c0.12,0.03,0.26,0.05,0.39,0.05     c0.1,0,0.2-0.01,0.31-0.04c0.11-0.03,0.23-0.07,0.35-0.14c0.12-0.07,0.26-0.16,0.4-0.27c0.15-0.11,0.3-0.26,0.48-0.43v-3.53     c0-0.18-0.01-0.32-0.04-0.44c-0.03-0.12-0.08-0.21-0.15-0.28c-0.07-0.07-0.18-0.12-0.31-0.15c-0.13-0.03-0.3-0.05-0.5-0.05v-0.25     H296.13z"/>
			<path class="st6" d="M299.45,219.88c0.73-0.88,1.43-1.32,2.09-1.32c0.23,0,0.45,0.04,0.64,0.12c0.2,0.08,0.37,0.21,0.51,0.39     c0.15,0.18,0.26,0.42,0.34,0.72c0.08,0.3,0.12,0.67,0.12,1.12v2.66c0,0.27,0.01,0.48,0.04,0.63c0.03,0.15,0.08,0.27,0.15,0.35     c0.07,0.08,0.17,0.13,0.29,0.15c0.12,0.02,0.28,0.03,0.46,0.03v0.25h-3.08v-0.25h0.13c0.2,0,0.36-0.02,0.48-0.05     c0.12-0.04,0.2-0.1,0.26-0.19c0.06-0.09,0.1-0.21,0.11-0.36c0.02-0.15,0.02-0.34,0.02-0.57v-2.55c0-0.57-0.07-0.98-0.22-1.24     c-0.15-0.26-0.4-0.38-0.75-0.38c-0.54,0-1.08,0.3-1.61,0.89v3.29c0,0.41,0.03,0.67,0.08,0.78c0.03,0.07,0.07,0.13,0.11,0.18     c0.04,0.05,0.09,0.09,0.16,0.12c0.07,0.03,0.15,0.05,0.26,0.06c0.11,0.01,0.25,0.02,0.42,0.02v0.25h-3.08v-0.25h0.14     c0.16,0,0.3-0.02,0.4-0.05c0.1-0.04,0.19-0.1,0.25-0.19c0.06-0.09,0.1-0.21,0.13-0.36c0.02-0.15,0.03-0.33,0.03-0.56v-2.31     c0-0.74-0.02-1.2-0.05-1.37c-0.03-0.16-0.08-0.27-0.15-0.33c-0.07-0.06-0.16-0.09-0.28-0.09c-0.13,0-0.28,0.03-0.46,0.1     l-0.1-0.25l1.88-0.76h0.29V219.88z"/>
			<path class="st6" d="M306.76,218.56v5.01c0,0.2,0.01,0.36,0.02,0.49c0.01,0.13,0.03,0.23,0.06,0.3c0.03,0.08,0.06,0.14,0.11,0.17     c0.04,0.04,0.09,0.07,0.15,0.11c0.12,0.06,0.32,0.1,0.61,0.1v0.25h-3.03v-0.25c0.15,0,0.28-0.01,0.38-0.02     c0.1-0.01,0.18-0.04,0.24-0.07c0.06-0.03,0.11-0.07,0.14-0.12c0.03-0.05,0.07-0.11,0.1-0.17c0.06-0.14,0.1-0.4,0.1-0.78v-2.4     c0-0.39-0.01-0.71-0.02-0.93c-0.01-0.23-0.04-0.4-0.07-0.51c-0.03-0.11-0.08-0.18-0.15-0.21c-0.07-0.03-0.15-0.04-0.25-0.04     c-0.13,0-0.28,0.03-0.46,0.1l-0.1-0.25l1.88-0.76H306.76z M306.19,215.29c0.1,0,0.19,0.02,0.27,0.05     c0.08,0.04,0.16,0.09,0.22,0.15s0.11,0.13,0.15,0.22c0.04,0.08,0.05,0.17,0.05,0.27c0,0.1-0.02,0.19-0.05,0.27     c-0.04,0.08-0.09,0.16-0.15,0.22c-0.06,0.06-0.13,0.11-0.22,0.15c-0.08,0.04-0.17,0.05-0.27,0.05c-0.1,0-0.18-0.02-0.27-0.05     c-0.08-0.04-0.16-0.09-0.22-0.15c-0.06-0.06-0.11-0.14-0.15-0.22c-0.04-0.08-0.05-0.17-0.05-0.27c0-0.1,0.02-0.18,0.05-0.27     c0.04-0.08,0.09-0.16,0.15-0.22c0.06-0.06,0.14-0.11,0.22-0.15C306.01,215.31,306.1,215.29,306.19,215.29z"/>
			<path class="st6" d="M310.29,216.69v2.05h1.46v0.48h-1.46v4.04c0,0.2,0.02,0.37,0.05,0.51c0.03,0.13,0.07,0.24,0.13,0.32     c0.05,0.08,0.12,0.13,0.19,0.16s0.16,0.04,0.25,0.04c0.15,0,0.3-0.05,0.44-0.14c0.14-0.09,0.25-0.23,0.33-0.41h0.27     c-0.08,0.22-0.18,0.42-0.3,0.59c-0.12,0.17-0.24,0.31-0.38,0.42c-0.14,0.11-0.28,0.2-0.44,0.25c-0.15,0.06-0.31,0.09-0.46,0.09     c-0.1,0-0.21-0.01-0.32-0.04c-0.11-0.03-0.21-0.07-0.3-0.13c-0.09-0.06-0.18-0.13-0.26-0.21c-0.08-0.08-0.14-0.18-0.18-0.29     c-0.1-0.22-0.14-0.55-0.14-1v-4.19h-0.99v-0.22c0.25-0.1,0.5-0.27,0.77-0.51c0.26-0.24,0.49-0.52,0.7-0.85     c0.05-0.09,0.11-0.21,0.19-0.36c0.07-0.16,0.16-0.35,0.25-0.58H310.29z"/>
			<path class="st6" d="M312,218.74h2.91v0.25h-0.14c-0.2,0-0.36,0.04-0.46,0.13c-0.1,0.09-0.15,0.2-0.15,0.33     c0,0.18,0.07,0.42,0.22,0.74l1.52,3.15l1.4-3.45c0.08-0.19,0.12-0.37,0.12-0.55c0-0.05-0.01-0.1-0.02-0.14     c-0.01-0.04-0.04-0.08-0.09-0.11s-0.11-0.06-0.19-0.07c-0.08-0.02-0.19-0.02-0.33-0.02v-0.25h2.03v0.25     c-0.12,0.01-0.22,0.03-0.29,0.05c-0.08,0.02-0.15,0.06-0.21,0.12s-0.13,0.15-0.19,0.27c-0.06,0.12-0.14,0.28-0.22,0.49     l-2.54,6.22c-0.12,0.3-0.27,0.56-0.44,0.79c-0.17,0.23-0.35,0.42-0.53,0.57c-0.19,0.15-0.38,0.27-0.58,0.35     c-0.2,0.08-0.39,0.12-0.57,0.12c-0.14,0-0.26-0.02-0.37-0.06c-0.11-0.04-0.21-0.1-0.29-0.17c-0.08-0.07-0.15-0.15-0.19-0.24     c-0.05-0.09-0.07-0.19-0.07-0.29c0-0.19,0.06-0.34,0.19-0.46c0.12-0.12,0.3-0.17,0.51-0.17c0.05,0,0.12,0.01,0.22,0.04     c0.1,0.03,0.2,0.06,0.3,0.09c0.1,0.03,0.19,0.06,0.28,0.09c0.08,0.03,0.13,0.04,0.16,0.04c0.07,0,0.14-0.02,0.21-0.05     s0.15-0.09,0.23-0.16c0.08-0.08,0.16-0.18,0.24-0.32s0.16-0.3,0.24-0.5l0.44-1.08l-2.24-4.71c-0.02-0.05-0.06-0.12-0.11-0.2     c-0.05-0.08-0.11-0.17-0.17-0.26c-0.06-0.09-0.12-0.17-0.18-0.24c-0.06-0.07-0.11-0.12-0.15-0.15c-0.1-0.07-0.26-0.14-0.5-0.19     V218.74z"/>
			<path class="st6" d="M319.73,223.66c0.1,0,0.2,0.02,0.29,0.06c0.09,0.04,0.17,0.09,0.24,0.16c0.07,0.07,0.12,0.15,0.16,0.24     c0.04,0.09,0.06,0.19,0.06,0.3c0,0.1-0.02,0.2-0.06,0.29c-0.04,0.09-0.1,0.17-0.16,0.24c-0.07,0.07-0.15,0.12-0.24,0.16     c-0.09,0.04-0.19,0.06-0.29,0.06s-0.2-0.02-0.29-0.06c-0.09-0.04-0.17-0.1-0.24-0.16c-0.07-0.07-0.12-0.15-0.16-0.24     c-0.04-0.09-0.06-0.19-0.06-0.29c0-0.11,0.02-0.21,0.06-0.3s0.1-0.17,0.16-0.24c0.07-0.07,0.15-0.12,0.24-0.16     C319.53,223.68,319.63,223.66,319.73,223.66z"/>
		</g>
	</g>
	<g>
		
			<linearGradient id="SVGID_00000160870655389365424730000011464760856862667692_" gradientUnits="userSpaceOnUse" x1="321.5863" y1="156.2494" x2="129.3642" y2="147.6647">
			<stop offset="0" style="stop-color:#86163E"/>
			<stop offset="0.2905" style="stop-color:#84163D"/>
			<stop offset="0.4821" style="stop-color:#7E1739"/>
			<stop offset="0.6451" style="stop-color:#731832"/>
			<stop offset="0.7921" style="stop-color:#651829"/>
			<stop offset="0.927" style="stop-color:#54151C"/>
			<stop offset="1" style="stop-color:#481212"/>
		</linearGradient>
		<path style="fill:url(#SVGID_00000160870655389365424730000011464760856862667692_);" d="M134.79,147.18h13.17v-8.11    c0-0.67-0.01-1.21-0.04-1.63c-0.03-0.42-0.08-0.76-0.16-1.03c-0.08-0.27-0.19-0.49-0.35-0.65c-0.15-0.16-0.36-0.31-0.61-0.45    c-0.61-0.33-1.25-0.5-1.9-0.5h-1v-0.77h12.15l-0.02,0.77h-1c-0.27,0-0.54,0.03-0.84,0.08c-0.29,0.06-0.57,0.15-0.84,0.27    c-0.27,0.13-0.5,0.28-0.7,0.47c-0.2,0.19-0.35,0.41-0.45,0.68c-0.15,0.46-0.23,1.38-0.23,2.76v18.29c0,0.67,0.01,1.21,0.04,1.63    c0.03,0.42,0.08,0.76,0.16,1.03c0.08,0.27,0.19,0.48,0.33,0.64c0.15,0.15,0.35,0.3,0.6,0.44c0.6,0.33,1.24,0.5,1.92,0.5h1v0.77    H143.9v-0.77h1c1.14,0,1.99-0.34,2.53-1.02c0.35-0.43,0.52-1.51,0.52-3.22v-8.63h-13.17v8.63c0,0.67,0.01,1.21,0.04,1.63    c0.03,0.42,0.08,0.76,0.16,1.02c0.08,0.26,0.19,0.48,0.35,0.64c0.15,0.16,0.36,0.31,0.61,0.45c0.6,0.33,1.23,0.5,1.9,0.5h1.02    v0.77h-12.15v-0.77h1c1.18,0,2.03-0.34,2.55-1.02c0.33-0.43,0.5-1.51,0.5-3.22v-18.29c0-0.67-0.01-1.21-0.04-1.63    c-0.03-0.42-0.08-0.76-0.16-1.03c-0.08-0.27-0.19-0.49-0.33-0.65c-0.15-0.16-0.35-0.31-0.6-0.45c-0.61-0.33-1.25-0.5-1.92-0.5h-1    v-0.77h12.15v0.77h-1.02c-0.28,0-0.56,0.03-0.85,0.08c-0.29,0.06-0.56,0.15-0.81,0.27c-0.26,0.13-0.49,0.28-0.69,0.47    c-0.2,0.19-0.35,0.41-0.45,0.68c-0.17,0.45-0.25,1.37-0.25,2.76V147.18z"/>
		
			<linearGradient id="SVGID_00000059289562243066009000000014452230637925043600_" gradientUnits="userSpaceOnUse" x1="321.4326" y1="159.6928" x2="129.2104" y2="151.1081">
			<stop offset="0" style="stop-color:#86163E"/>
			<stop offset="0.2905" style="stop-color:#84163D"/>
			<stop offset="0.4821" style="stop-color:#7E1739"/>
			<stop offset="0.6451" style="stop-color:#731832"/>
			<stop offset="0.7921" style="stop-color:#651829"/>
			<stop offset="0.927" style="stop-color:#54151C"/>
			<stop offset="1" style="stop-color:#481212"/>
		</linearGradient>
		<path style="fill:url(#SVGID_00000059289562243066009000000014452230637925043600_);" d="M161.46,150.44    c0,1.42,0.19,2.7,0.56,3.83c0.38,1.13,0.89,2.09,1.53,2.87c0.64,0.79,1.38,1.39,2.23,1.8c0.84,0.41,1.73,0.62,2.67,0.62    c1.25,0,2.34-0.34,3.27-1.03s1.7-1.87,2.33-3.54l0.65,0.42c-0.15,0.93-0.45,1.85-0.88,2.76c-0.43,0.91-0.99,1.71-1.66,2.42    c-0.68,0.71-1.46,1.29-2.36,1.72c-0.9,0.44-1.88,0.66-2.94,0.66c-1.14,0-2.22-0.23-3.23-0.7c-1.01-0.47-1.9-1.13-2.65-1.99    c-0.76-0.86-1.36-1.9-1.81-3.11c-0.45-1.22-0.67-2.59-0.67-4.11c0-1.66,0.23-3.13,0.68-4.42c0.45-1.29,1.08-2.38,1.87-3.27    c0.79-0.89,1.73-1.57,2.81-2.03s2.24-0.69,3.48-0.69c1.06,0,2.04,0.18,2.94,0.55c0.9,0.37,1.68,0.9,2.33,1.58    c0.65,0.68,1.17,1.5,1.54,2.46c0.37,0.95,0.55,2.02,0.55,3.21H161.46z M161.46,149.23h8.86c-0.06-1.23-0.2-2.09-0.44-2.59    c-0.35-0.78-0.87-1.39-1.56-1.84c-0.69-0.45-1.41-0.67-2.16-0.67c-0.57,0-1.12,0.11-1.65,0.34c-0.53,0.23-1.01,0.56-1.44,1    c-0.43,0.44-0.79,0.97-1.08,1.6C161.71,147.7,161.53,148.42,161.46,149.23z"/>
		
			<linearGradient id="SVGID_00000093156317688285325450000009802483341659441068_" gradientUnits="userSpaceOnUse" x1="321.4693" y1="158.8705" x2="129.2471" y2="150.2858">
			<stop offset="0" style="stop-color:#86163E"/>
			<stop offset="0.2905" style="stop-color:#84163D"/>
			<stop offset="0.4821" style="stop-color:#7E1739"/>
			<stop offset="0.6451" style="stop-color:#731832"/>
			<stop offset="0.7921" style="stop-color:#651829"/>
			<stop offset="0.927" style="stop-color:#54151C"/>
			<stop offset="1" style="stop-color:#481212"/>
		</linearGradient>
		<path style="fill:url(#SVGID_00000093156317688285325450000009802483341659441068_);" d="M188.09,159.62    c-1.97,1.53-3.2,2.41-3.7,2.63c-0.74,0.35-1.54,0.52-2.4,0.52c-0.66,0-1.26-0.12-1.82-0.36c-0.56-0.24-1.04-0.57-1.44-1    c-0.4-0.43-0.72-0.95-0.95-1.56s-0.35-1.28-0.35-2.02c0-0.54,0.07-1.05,0.22-1.51c0.15-0.46,0.37-0.9,0.66-1.31    c0.29-0.41,0.67-0.8,1.12-1.18s0.99-0.75,1.6-1.11c1.44-0.85,3.79-1.87,7.07-3.05v-0.75c0-0.96-0.08-1.76-0.24-2.4    c-0.16-0.64-0.39-1.15-0.69-1.54c-0.3-0.38-0.67-0.65-1.12-0.82c-0.45-0.16-0.95-0.24-1.51-0.24c-0.45,0-0.85,0.07-1.2,0.2    c-0.36,0.13-0.66,0.31-0.91,0.52c-0.25,0.22-0.44,0.47-0.58,0.75c-0.13,0.29-0.2,0.57-0.2,0.87l0.04,1.21    c0,0.64-0.16,1.14-0.49,1.48c-0.33,0.35-0.76,0.52-1.29,0.52c-0.52,0-0.94-0.18-1.26-0.54c-0.33-0.36-0.49-0.86-0.49-1.48    c0-0.59,0.16-1.16,0.47-1.74c0.31-0.57,0.77-1.09,1.36-1.55c0.59-0.46,1.32-0.83,2.19-1.11c0.87-0.28,1.86-0.42,2.98-0.42    c1.48,0,2.73,0.22,3.76,0.65c1.03,0.43,1.78,1.18,2.24,2.24c0.25,0.61,0.38,1.84,0.38,3.68v6.5c0,0.92,0.01,1.66,0.03,2.22    c0.02,0.56,0.05,0.94,0.07,1.15c0.07,0.4,0.18,0.68,0.34,0.82c0.16,0.14,0.35,0.21,0.55,0.21c0.14,0,0.27-0.02,0.4-0.06    c0.13-0.04,0.27-0.13,0.44-0.25c0.17-0.13,0.36-0.3,0.59-0.51c0.22-0.22,0.51-0.5,0.86-0.85v1.17c-1.57,2.09-3.07,3.14-4.47,3.14    c-0.67,0-1.21-0.24-1.63-0.71C188.3,161.57,188.09,160.76,188.09,159.62z M188.09,158.26v-7.3c-1.06,0.42-1.93,0.77-2.6,1.07    c-0.68,0.29-1.17,0.53-1.47,0.71c-1.1,0.63-1.89,1.27-2.36,1.93c-0.47,0.66-0.71,1.39-0.71,2.18c0,0.5,0.08,0.97,0.24,1.39    c0.16,0.43,0.38,0.79,0.65,1.11c0.27,0.31,0.59,0.56,0.95,0.73c0.36,0.17,0.74,0.26,1.13,0.26    C184.97,160.35,186.37,159.65,188.09,158.26z"/>
		
			<linearGradient id="SVGID_00000029008869412544076300000017466238443476032171_" gradientUnits="userSpaceOnUse" x1="321.7331" y1="152.9623" x2="129.511" y2="144.3776">
			<stop offset="0" style="stop-color:#86163E"/>
			<stop offset="0.2905" style="stop-color:#84163D"/>
			<stop offset="0.4821" style="stop-color:#7E1739"/>
			<stop offset="0.6451" style="stop-color:#731832"/>
			<stop offset="0.7921" style="stop-color:#651829"/>
			<stop offset="0.927" style="stop-color:#54151C"/>
			<stop offset="1" style="stop-color:#481212"/>
		</linearGradient>
		<path style="fill:url(#SVGID_00000029008869412544076300000017466238443476032171_);" d="M202.83,132.65v25.4    c0,0.61,0.02,1.11,0.06,1.49c0.04,0.38,0.1,0.69,0.19,0.92c0.08,0.23,0.19,0.41,0.32,0.53c0.13,0.13,0.3,0.24,0.49,0.33    c0.33,0.2,1.01,0.29,2.03,0.29v0.75h-9.39v-0.75c0.63,0,1.13-0.05,1.49-0.15c0.37-0.1,0.65-0.28,0.86-0.54    c0.2-0.26,0.33-0.63,0.39-1.09s0.08-1.06,0.08-1.8v-17.39c0-1.09-0.01-1.96-0.03-2.62c-0.02-0.66-0.06-1.11-0.11-1.35    c-0.11-0.5-0.27-0.84-0.48-1.02c-0.21-0.18-0.48-0.27-0.81-0.27c-0.38,0-0.84,0.11-1.38,0.33l-0.36-0.73l5.71-2.34H202.83z"/>
		
			<linearGradient id="SVGID_00000168833503533463501000000001879561357701771919_" gradientUnits="userSpaceOnUse" x1="321.6587" y1="154.629" x2="129.4365" y2="146.0443">
			<stop offset="0" style="stop-color:#86163E"/>
			<stop offset="0.2905" style="stop-color:#84163D"/>
			<stop offset="0.4821" style="stop-color:#7E1739"/>
			<stop offset="0.6451" style="stop-color:#731832"/>
			<stop offset="0.7921" style="stop-color:#651829"/>
			<stop offset="0.927" style="stop-color:#54151C"/>
			<stop offset="1" style="stop-color:#481212"/>
		</linearGradient>
		<path style="fill:url(#SVGID_00000168833503533463501000000001879561357701771919_);" d="M213.7,136.93v6.29h4.47v1.46h-4.47    v12.42c0,0.63,0.05,1.15,0.15,1.56c0.1,0.41,0.23,0.74,0.4,0.97c0.17,0.24,0.37,0.4,0.6,0.49c0.23,0.09,0.48,0.14,0.76,0.14    c0.46,0,0.91-0.14,1.34-0.43c0.43-0.29,0.77-0.71,1-1.26h0.82c-0.25,0.68-0.55,1.28-0.91,1.8c-0.36,0.52-0.74,0.94-1.16,1.29    c-0.42,0.34-0.86,0.6-1.34,0.77c-0.47,0.17-0.95,0.26-1.42,0.26c-0.32,0-0.64-0.05-0.97-0.14c-0.33-0.09-0.63-0.22-0.92-0.4    c-0.29-0.17-0.55-0.39-0.78-0.64c-0.24-0.25-0.43-0.54-0.56-0.88c-0.29-0.67-0.44-1.69-0.44-3.07v-12.88h-3.03V144    c0.77-0.31,1.55-0.83,2.35-1.56c0.8-0.73,1.52-1.6,2.14-2.6c0.15-0.26,0.35-0.64,0.58-1.12s0.48-1.08,0.76-1.79H213.7z"/>
		
			<linearGradient id="SVGID_00000032608772508780453040000007710528666860943253_" gradientUnits="userSpaceOnUse" x1="321.7785" y1="151.9472" x2="129.5563" y2="143.3625">
			<stop offset="0" style="stop-color:#86163E"/>
			<stop offset="0.2905" style="stop-color:#84163D"/>
			<stop offset="0.4821" style="stop-color:#7E1739"/>
			<stop offset="0.6451" style="stop-color:#731832"/>
			<stop offset="0.7921" style="stop-color:#651829"/>
			<stop offset="0.927" style="stop-color:#54151C"/>
			<stop offset="1" style="stop-color:#481212"/>
		</linearGradient>
		<path style="fill:url(#SVGID_00000032608772508780453040000007710528666860943253_);" d="M225.66,132.65v14.01    c0.45-0.43,0.89-0.88,1.33-1.36c0.44-0.47,0.91-0.91,1.41-1.3c0.5-0.39,1.05-0.71,1.64-0.96c0.59-0.25,1.26-0.38,2.02-0.38    c1.02,0,1.85,0.22,2.49,0.66c0.64,0.44,1.14,1.02,1.51,1.76c0.36,0.73,0.61,1.56,0.74,2.5c0.13,0.93,0.2,1.9,0.2,2.88v7.59    c0,0.64,0.01,1.18,0.03,1.62c0.02,0.44,0.12,0.79,0.29,1.07c0.17,0.27,0.45,0.48,0.84,0.62c0.38,0.14,0.94,0.23,1.68,0.27v0.75    h-9.41v-0.75h0.44c0.63,0,1.11-0.06,1.46-0.17c0.35-0.11,0.61-0.3,0.79-0.57s0.29-0.64,0.33-1.1c0.04-0.46,0.06-1.04,0.06-1.74    v-7.59c0-0.6-0.01-1.21-0.03-1.83c-0.02-0.62-0.12-1.18-0.3-1.69c-0.18-0.51-0.48-0.93-0.91-1.25c-0.43-0.33-1.03-0.49-1.83-0.49    c-0.35,0-0.7,0.04-1.05,0.11c-0.35,0.08-0.71,0.22-1.1,0.42c-0.38,0.2-0.79,0.48-1.22,0.84c-0.43,0.36-0.91,0.81-1.42,1.37v10.12    c0,0.68,0.01,1.22,0.04,1.6c0.03,0.38,0.08,0.68,0.16,0.89c0.08,0.21,0.18,0.36,0.31,0.46c0.13,0.1,0.3,0.2,0.51,0.31    c0.19,0.11,0.47,0.19,0.82,0.24c0.35,0.05,0.77,0.07,1.25,0.07v0.75h-9.49v-0.75c0.53,0,0.98-0.03,1.35-0.09    c0.37-0.06,0.67-0.21,0.91-0.45c0.24-0.24,0.41-0.6,0.51-1.08c0.1-0.48,0.16-1.13,0.16-1.95v-17.33c0-2.16-0.06-3.5-0.17-4.03    c-0.1-0.5-0.25-0.84-0.47-1.02c-0.22-0.18-0.5-0.27-0.87-0.27c-0.32,0-0.79,0.11-1.42,0.33l-0.29-0.73l5.73-2.34H225.66z"/>
		
			<linearGradient id="SVGID_00000153684908030605701510000012728448780569298084_" gradientUnits="userSpaceOnUse" x1="321.8233" y1="150.9422" x2="129.6012" y2="142.3575">
			<stop offset="0" style="stop-color:#86163E"/>
			<stop offset="0.2905" style="stop-color:#84163D"/>
			<stop offset="0.4821" style="stop-color:#7E1739"/>
			<stop offset="0.6451" style="stop-color:#731832"/>
			<stop offset="0.7921" style="stop-color:#651829"/>
			<stop offset="0.927" style="stop-color:#54151C"/>
			<stop offset="1" style="stop-color:#481212"/>
		</linearGradient>
		<path style="fill:url(#SVGID_00000153684908030605701510000012728448780569298084_);" d="M265.88,133.38l0.65,9.64h-0.65    c-0.43-1.44-0.96-2.67-1.58-3.7c-0.62-1.03-1.33-1.87-2.12-2.53c-0.79-0.65-1.67-1.14-2.63-1.44c-0.96-0.31-2.01-0.46-3.14-0.46    c-1.9,0-3.57,0.46-5.04,1.39c-1.46,0.93-2.63,2.35-3.49,4.27c-0.47,1.06-0.84,2.26-1.09,3.61c-0.25,1.35-0.38,2.85-0.38,4.53    c0,2.55,0.41,4.77,1.23,6.67c0.42,0.96,0.94,1.8,1.58,2.53c0.63,0.72,1.35,1.33,2.16,1.82c0.81,0.49,1.69,0.86,2.64,1.11    c0.95,0.25,1.95,0.38,2.98,0.38c1.17,0,2.18-0.12,3.03-0.36c0.85-0.24,1.62-0.6,2.32-1.09c0.7-0.49,1.37-1.1,2.02-1.84    c0.65-0.74,1.36-1.6,2.14-2.59l0.65,0.42c-0.71,1.25-1.48,2.34-2.3,3.26c-0.82,0.92-1.71,1.68-2.68,2.28    c-0.96,0.6-2,1.04-3.13,1.33c-1.12,0.29-2.33,0.43-3.63,0.43c-4.71,0-8.35-1.74-10.91-5.23c-1.92-2.59-2.88-5.64-2.88-9.16    c0-1.69,0.23-3.32,0.69-4.9c0.46-1.58,1.17-3.04,2.13-4.38c0.67-0.95,1.43-1.79,2.29-2.54c0.86-0.75,1.78-1.37,2.78-1.88    c1-0.51,2.05-0.9,3.15-1.16c1.1-0.26,2.23-0.4,3.39-0.4c2.05,0,4.07,0.5,6.06,1.5c0.61,0.32,1.03,0.47,1.25,0.46    c0.45,0,0.82-0.18,1.12-0.55c0.3-0.37,0.51-0.84,0.64-1.41H265.88z"/>
		
			<linearGradient id="SVGID_00000146464609825681129230000003412528914125858465_" gradientUnits="userSpaceOnUse" x1="321.6539" y1="154.7364" x2="129.4317" y2="146.1517">
			<stop offset="0" style="stop-color:#86163E"/>
			<stop offset="0.2905" style="stop-color:#84163D"/>
			<stop offset="0.4821" style="stop-color:#7E1739"/>
			<stop offset="0.6451" style="stop-color:#731832"/>
			<stop offset="0.7921" style="stop-color:#651829"/>
			<stop offset="0.927" style="stop-color:#54151C"/>
			<stop offset="1" style="stop-color:#481212"/>
		</linearGradient>
		<path style="fill:url(#SVGID_00000146464609825681129230000003412528914125858465_);" d="M280.85,159.62    c-1.97,1.53-3.2,2.41-3.7,2.63c-0.74,0.35-1.54,0.52-2.4,0.52c-0.66,0-1.26-0.12-1.82-0.36c-0.56-0.24-1.04-0.57-1.44-1    c-0.4-0.43-0.72-0.95-0.95-1.56c-0.23-0.61-0.35-1.28-0.35-2.02c0-0.54,0.07-1.05,0.22-1.51c0.15-0.46,0.37-0.9,0.66-1.31    c0.29-0.41,0.67-0.8,1.12-1.18c0.45-0.38,0.99-0.75,1.6-1.11c1.44-0.85,3.79-1.87,7.07-3.05v-0.75c0-0.96-0.08-1.76-0.24-2.4    c-0.16-0.64-0.39-1.15-0.69-1.54c-0.3-0.38-0.67-0.65-1.12-0.82c-0.45-0.16-0.95-0.24-1.51-0.24c-0.45,0-0.85,0.07-1.2,0.2    c-0.36,0.13-0.66,0.31-0.91,0.52c-0.25,0.22-0.44,0.47-0.58,0.75c-0.13,0.29-0.2,0.57-0.2,0.87l0.04,1.21    c0,0.64-0.16,1.14-0.49,1.48c-0.33,0.35-0.76,0.52-1.29,0.52c-0.52,0-0.94-0.18-1.26-0.54c-0.33-0.36-0.49-0.86-0.49-1.48    c0-0.59,0.16-1.16,0.47-1.74c0.31-0.57,0.77-1.09,1.36-1.55c0.59-0.46,1.32-0.83,2.19-1.11c0.87-0.28,1.86-0.42,2.98-0.42    c1.48,0,2.73,0.22,3.76,0.65c1.03,0.43,1.78,1.18,2.24,2.24c0.25,0.61,0.38,1.84,0.38,3.68v6.5c0,0.92,0.01,1.66,0.03,2.22    c0.02,0.56,0.05,0.94,0.07,1.15c0.07,0.4,0.18,0.68,0.34,0.82c0.16,0.14,0.35,0.21,0.55,0.21c0.14,0,0.27-0.02,0.4-0.06    c0.13-0.04,0.27-0.13,0.44-0.25c0.17-0.13,0.36-0.3,0.59-0.51c0.22-0.22,0.51-0.5,0.86-0.85v1.17c-1.57,2.09-3.07,3.14-4.47,3.14    c-0.67,0-1.21-0.24-1.63-0.71C281.06,161.57,280.85,160.76,280.85,159.62z M280.85,158.26v-7.3c-1.06,0.42-1.93,0.77-2.6,1.07    c-0.68,0.29-1.17,0.53-1.47,0.71c-1.1,0.63-1.89,1.27-2.36,1.93c-0.47,0.66-0.71,1.39-0.71,2.18c0,0.5,0.08,0.97,0.24,1.39    c0.16,0.43,0.38,0.79,0.65,1.11c0.27,0.31,0.59,0.56,0.95,0.73c0.36,0.17,0.74,0.26,1.13,0.26    C277.73,160.35,279.12,159.65,280.85,158.26z"/>
		
			<linearGradient id="SVGID_00000059269174544651742880000004529447303772730791_" gradientUnits="userSpaceOnUse" x1="321.6975" y1="153.7608" x2="129.4753" y2="145.1761">
			<stop offset="0" style="stop-color:#86163E"/>
			<stop offset="0.2905" style="stop-color:#84163D"/>
			<stop offset="0.4821" style="stop-color:#7E1739"/>
			<stop offset="0.6451" style="stop-color:#731832"/>
			<stop offset="0.7921" style="stop-color:#651829"/>
			<stop offset="0.927" style="stop-color:#54151C"/>
			<stop offset="1" style="stop-color:#481212"/>
		</linearGradient>
		<path style="fill:url(#SVGID_00000059269174544651742880000004529447303772730791_);" d="M294.6,142.66v4.31    c1.62-2.87,3.26-4.31,4.93-4.31c0.38,0,0.72,0.06,1.05,0.19c0.32,0.13,0.6,0.3,0.85,0.51c0.24,0.22,0.43,0.46,0.56,0.74    c0.13,0.28,0.2,0.57,0.2,0.88c0,0.54-0.18,1-0.54,1.38c-0.36,0.38-0.79,0.56-1.3,0.56c-0.24,0-0.5-0.08-0.79-0.23    c-0.29-0.15-0.58-0.32-0.87-0.49c-0.29-0.17-0.55-0.34-0.78-0.49c-0.24-0.15-0.42-0.23-0.54-0.23c-0.18,0-0.38,0.08-0.61,0.24    c-0.22,0.16-0.45,0.38-0.69,0.67c-0.24,0.29-0.48,0.63-0.73,1.02c-0.25,0.4-0.49,0.83-0.73,1.31v9.18c0,0.57,0.03,1.09,0.1,1.55    c0.07,0.46,0.22,0.85,0.45,1.17c0.23,0.32,0.57,0.57,1.01,0.74c0.45,0.17,1.04,0.26,1.78,0.26v0.75h-9.8v-0.75    c0.61,0,1.12-0.04,1.51-0.13s0.7-0.25,0.92-0.5c0.22-0.25,0.38-0.61,0.46-1.08c0.08-0.47,0.13-1.08,0.13-1.85v-7.42    c0-2.26-0.05-3.58-0.15-3.97c-0.18-0.82-0.65-1.23-1.4-1.23c-0.43,0-0.92,0.1-1.46,0.31l-0.21-0.75l5.79-2.34H294.6z"/>
		
			<linearGradient id="SVGID_00000078747045694925876070000010615813658090688667_" gradientUnits="userSpaceOnUse" x1="321.7212" y1="153.2293" x2="129.499" y2="144.6447">
			<stop offset="0" style="stop-color:#86163E"/>
			<stop offset="0.2905" style="stop-color:#84163D"/>
			<stop offset="0.4821" style="stop-color:#7E1739"/>
			<stop offset="0.6451" style="stop-color:#731832"/>
			<stop offset="0.7921" style="stop-color:#651829"/>
			<stop offset="0.927" style="stop-color:#54151C"/>
			<stop offset="1" style="stop-color:#481212"/>
		</linearGradient>
		<path style="fill:url(#SVGID_00000078747045694925876070000010615813658090688667_);" d="M306.48,150.44    c0,1.42,0.19,2.7,0.56,3.83c0.38,1.13,0.89,2.09,1.53,2.87c0.64,0.79,1.38,1.39,2.23,1.8c0.84,0.41,1.73,0.62,2.67,0.62    c1.25,0,2.34-0.34,3.27-1.03c0.93-0.69,1.7-1.87,2.33-3.54l0.65,0.42c-0.15,0.93-0.45,1.85-0.88,2.76    c-0.43,0.91-0.99,1.71-1.66,2.42c-0.68,0.71-1.46,1.29-2.36,1.72c-0.9,0.44-1.88,0.66-2.94,0.66c-1.14,0-2.22-0.23-3.23-0.7    s-1.9-1.13-2.65-1.99c-0.76-0.86-1.36-1.9-1.81-3.11c-0.45-1.22-0.67-2.59-0.67-4.11c0-1.66,0.23-3.13,0.68-4.42    c0.45-1.29,1.08-2.38,1.87-3.27c0.79-0.89,1.73-1.57,2.81-2.03s2.24-0.69,3.48-0.69c1.06,0,2.04,0.18,2.94,0.55    c0.9,0.37,1.68,0.9,2.33,1.58c0.65,0.68,1.17,1.5,1.54,2.46c0.37,0.95,0.55,2.02,0.55,3.21H306.48z M306.48,149.23h8.86    c-0.06-1.23-0.2-2.09-0.44-2.59c-0.35-0.78-0.87-1.39-1.56-1.84c-0.69-0.45-1.41-0.67-2.16-0.67c-0.57,0-1.12,0.11-1.65,0.34    c-0.53,0.23-1.01,0.56-1.44,1c-0.43,0.44-0.79,0.97-1.08,1.6C306.72,147.7,306.55,148.42,306.48,149.23z"/>
	</g>
	<g>
		<g>
			<g>
				<path class="st6" d="M146.67,173.04v5.65h-0.41c-0.09-0.76-0.25-1.4-0.47-1.93c-0.22-0.53-0.51-0.95-0.86-1.28      c-0.36-0.33-0.79-0.56-1.3-0.71c-0.51-0.15-1.1-0.22-1.78-0.22h-3.39v18.4c0,1.48,0.16,2.4,0.48,2.77      c0.44,0.5,1.13,0.75,2.08,0.75h0.84v0.66h-10.21v-0.66h0.85c1.02,0,1.74-0.31,2.17-0.92c0.26-0.37,0.39-1.23,0.39-2.59v-18.4      h-2.9c-0.73,0-1.37,0.05-1.92,0.16s-1.01,0.31-1.39,0.6c-0.38,0.3-0.69,0.72-0.92,1.26c-0.24,0.55-0.41,1.25-0.53,2.11h-0.67      v-5.65H146.67z"/>
				<path class="st6" d="M158.2,194.78c-1.67,1.3-2.72,2.05-3.14,2.24c-0.63,0.3-1.31,0.44-2.04,0.44c-0.56,0-1.07-0.1-1.55-0.3      c-0.47-0.2-0.88-0.49-1.23-0.85c-0.34-0.37-0.61-0.81-0.81-1.32c-0.2-0.52-0.29-1.09-0.29-1.71c0-0.46,0.06-0.89,0.19-1.28      c0.12-0.39,0.31-0.76,0.56-1.11c0.25-0.35,0.57-0.68,0.95-1c0.38-0.32,0.84-0.63,1.36-0.94c1.22-0.72,3.22-1.59,6-2.59v-0.64      c0-0.82-0.07-1.5-0.2-2.04c-0.14-0.54-0.33-0.98-0.59-1.31c-0.25-0.33-0.57-0.56-0.95-0.69c-0.38-0.14-0.81-0.2-1.28-0.2      c-0.38,0-0.72,0.06-1.02,0.17c-0.3,0.11-0.56,0.26-0.77,0.44c-0.21,0.18-0.38,0.4-0.49,0.64c-0.11,0.24-0.17,0.49-0.17,0.74      l0.04,1.03c0,0.54-0.14,0.97-0.42,1.26c-0.28,0.3-0.64,0.44-1.09,0.44c-0.44,0-0.8-0.15-1.07-0.46      c-0.28-0.31-0.42-0.73-0.42-1.26c0-0.5,0.13-0.99,0.4-1.47c0.27-0.49,0.65-0.92,1.15-1.31c0.5-0.39,1.12-0.7,1.87-0.94      c0.74-0.24,1.58-0.36,2.53-0.36c1.25,0,2.32,0.18,3.2,0.55c0.88,0.37,1.51,1,1.9,1.9c0.21,0.52,0.32,1.56,0.32,3.13v5.52      c0,0.78,0.01,1.41,0.03,1.88c0.02,0.47,0.04,0.8,0.06,0.98c0.06,0.34,0.16,0.57,0.29,0.69c0.14,0.12,0.29,0.18,0.47,0.18      c0.12,0,0.23-0.02,0.34-0.05c0.11-0.04,0.23-0.11,0.37-0.21c0.14-0.11,0.31-0.25,0.5-0.44c0.19-0.18,0.43-0.42,0.73-0.72v0.99      c-1.34,1.78-2.61,2.66-3.8,2.66c-0.57,0-1.03-0.2-1.39-0.6C158.38,196.44,158.2,195.75,158.2,194.78z M158.2,193.63v-6.2      c-0.9,0.36-1.64,0.66-2.21,0.91c-0.57,0.25-0.99,0.45-1.25,0.6c-0.94,0.53-1.61,1.08-2.01,1.64c-0.4,0.56-0.6,1.18-0.6,1.86      c0,0.43,0.07,0.82,0.2,1.18c0.14,0.36,0.32,0.68,0.55,0.94c0.23,0.27,0.5,0.47,0.81,0.62c0.31,0.15,0.63,0.22,0.96,0.22      C155.54,195.4,156.73,194.81,158.2,193.63z"/>
				<path class="st6" d="M170.72,171.87v21.58c0,0.52,0.02,0.94,0.05,1.27c0.04,0.33,0.09,0.59,0.16,0.78      c0.07,0.2,0.16,0.35,0.28,0.45c0.11,0.11,0.25,0.2,0.42,0.28c0.28,0.17,0.86,0.25,1.72,0.25v0.64h-7.98v-0.64      c0.53,0,0.96-0.04,1.27-0.12c0.31-0.08,0.56-0.24,0.73-0.46c0.17-0.22,0.28-0.53,0.33-0.92c0.05-0.39,0.07-0.9,0.07-1.53v-14.78      c0-0.92-0.01-1.67-0.03-2.23c-0.02-0.56-0.05-0.94-0.1-1.15c-0.09-0.43-0.23-0.72-0.41-0.87c-0.18-0.15-0.41-0.23-0.69-0.23      c-0.32,0-0.71,0.09-1.17,0.28l-0.3-0.62l4.85-1.99H170.72z"/>
				<path class="st6" d="M177.97,186.98c0,1.21,0.16,2.29,0.48,3.25c0.32,0.96,0.75,1.77,1.3,2.44c0.54,0.67,1.18,1.18,1.89,1.53      c0.72,0.35,1.47,0.52,2.26,0.52c1.07,0,1.99-0.29,2.78-0.88c0.79-0.59,1.45-1.59,1.98-3.01l0.55,0.36      c-0.13,0.79-0.38,1.58-0.75,2.34c-0.37,0.77-0.84,1.46-1.41,2.06c-0.57,0.6-1.24,1.09-2.01,1.47c-0.76,0.37-1.6,0.56-2.5,0.56      c-0.97,0-1.89-0.2-2.74-0.6c-0.86-0.4-1.61-0.96-2.26-1.69c-0.65-0.73-1.16-1.61-1.54-2.65c-0.38-1.04-0.57-2.2-0.57-3.49      c0-1.41,0.19-2.66,0.58-3.76c0.38-1.1,0.92-2.02,1.59-2.78c0.67-0.76,1.47-1.33,2.39-1.72c0.92-0.39,1.9-0.59,2.96-0.59      c0.9,0,1.73,0.16,2.5,0.47c0.76,0.31,1.42,0.76,1.98,1.34c0.56,0.58,0.99,1.28,1.31,2.09c0.31,0.81,0.47,1.72,0.47,2.73H177.97z       M177.97,185.95h7.53c-0.05-1.04-0.17-1.78-0.37-2.2c-0.3-0.66-0.74-1.18-1.32-1.56c-0.59-0.38-1.2-0.57-1.84-0.57      c-0.49,0-0.95,0.1-1.4,0.29c-0.45,0.2-0.86,0.48-1.23,0.85c-0.37,0.37-0.67,0.83-0.92,1.36      C178.18,184.66,178.03,185.27,177.97,185.95z"/>
				<path class="st6" d="M196.13,183.82c1.91-2.3,3.72-3.45,5.45-3.45c0.6,0,1.16,0.1,1.67,0.3c0.51,0.2,0.95,0.54,1.33,1.01      c0.38,0.47,0.68,1.1,0.89,1.88c0.21,0.78,0.32,1.76,0.32,2.93v6.95c0,0.7,0.04,1.25,0.12,1.65c0.08,0.4,0.21,0.71,0.4,0.91      c0.19,0.21,0.44,0.34,0.76,0.39c0.32,0.05,0.72,0.08,1.21,0.08v0.64h-8.05v-0.64h0.34c0.53,0,0.95-0.05,1.25-0.14      c0.3-0.09,0.53-0.26,0.68-0.49c0.15-0.23,0.25-0.54,0.29-0.93c0.04-0.39,0.06-0.88,0.06-1.47v-6.66c0-1.48-0.19-2.56-0.58-3.22      c-0.38-0.67-1.03-1-1.95-1c-1.41,0-2.81,0.77-4.21,2.31v8.58c0,1.08,0.06,1.76,0.2,2.04c0.08,0.18,0.17,0.33,0.28,0.46      c0.1,0.13,0.24,0.23,0.41,0.31c0.17,0.08,0.4,0.13,0.68,0.17c0.28,0.04,0.64,0.05,1.09,0.05v0.64h-8.05v-0.64h0.36      c0.43,0,0.78-0.05,1.05-0.14c0.27-0.09,0.49-0.26,0.65-0.5c0.16-0.24,0.27-0.55,0.33-0.93c0.06-0.38,0.09-0.87,0.09-1.47v-6.04      c0-1.93-0.05-3.12-0.14-3.57c-0.08-0.43-0.22-0.72-0.4-0.87c-0.18-0.15-0.43-0.23-0.74-0.23c-0.33,0-0.73,0.09-1.19,0.27      l-0.27-0.64l4.9-1.99h0.76V183.82z"/>
				<path class="st6" d="M214.3,175.51v5.35h3.8v1.24h-3.8v10.55c0,0.53,0.04,0.97,0.12,1.32c0.08,0.35,0.2,0.62,0.34,0.83      c0.14,0.2,0.31,0.34,0.51,0.42c0.2,0.08,0.41,0.12,0.65,0.12c0.39,0,0.77-0.12,1.14-0.36c0.37-0.24,0.65-0.6,0.85-1.07h0.69      c-0.21,0.58-0.47,1.09-0.77,1.53c-0.3,0.44-0.63,0.8-0.99,1.09c-0.36,0.29-0.73,0.51-1.14,0.66c-0.4,0.15-0.81,0.22-1.21,0.22      c-0.27,0-0.55-0.04-0.83-0.12c-0.28-0.08-0.54-0.19-0.78-0.34c-0.24-0.15-0.47-0.33-0.67-0.54c-0.2-0.21-0.36-0.46-0.48-0.75      c-0.25-0.57-0.37-1.44-0.37-2.61V182.1h-2.58v-0.59c0.65-0.26,1.32-0.7,2-1.32c0.68-0.62,1.29-1.36,1.82-2.21      c0.13-0.22,0.29-0.54,0.49-0.95c0.2-0.41,0.41-0.92,0.65-1.52H214.3z"/>
			</g>
		</g>
		<g>
			<g>
				<path class="st6" d="M272.57,190.47l0.59,0.12l-2.06,6.54h-18.65v-0.66h0.91c1.01,0,1.74-0.33,2.19-0.99      c0.25-0.37,0.37-1.24,0.37-2.63V177.3c0-1.52-0.17-2.46-0.5-2.82c-0.46-0.52-1.15-0.78-2.06-0.78h-0.91v-0.66h10.91v0.66      c-0.65,0-1.19,0.03-1.63,0.09c-0.43,0.06-0.79,0.15-1.07,0.27s-0.5,0.26-0.66,0.42c-0.16,0.16-0.29,0.33-0.4,0.52      c-0.19,0.37-0.28,1.27-0.28,2.72v15.14c0,0.41,0.01,0.77,0.04,1.07c0.03,0.3,0.08,0.54,0.15,0.74c0.07,0.2,0.17,0.36,0.28,0.48      c0.12,0.12,0.27,0.22,0.46,0.29c0.28,0.12,1.21,0.18,2.77,0.18h1.76c1.84,0,3.13-0.14,3.89-0.41c0.38-0.13,0.73-0.31,1.07-0.53      c0.33-0.22,0.65-0.52,0.97-0.9c0.31-0.37,0.62-0.83,0.92-1.36C271.94,191.87,272.25,191.22,272.57,190.47z"/>
				<path class="st6" d="M280.69,180.37v13.08c0,0.52,0.02,0.94,0.05,1.27c0.04,0.33,0.09,0.59,0.16,0.79      c0.07,0.2,0.16,0.35,0.28,0.45c0.11,0.1,0.24,0.19,0.38,0.28c0.31,0.17,0.84,0.25,1.6,0.25v0.64h-7.91v-0.64      c0.4,0,0.73-0.02,0.99-0.05c0.25-0.04,0.46-0.09,0.62-0.18c0.16-0.08,0.28-0.19,0.37-0.31c0.09-0.12,0.17-0.28,0.26-0.45      c0.17-0.37,0.25-1.05,0.25-2.04v-6.27c0-1.03-0.02-1.84-0.05-2.43c-0.04-0.59-0.1-1.04-0.19-1.33c-0.09-0.3-0.22-0.48-0.39-0.56      c-0.17-0.08-0.39-0.12-0.65-0.12c-0.33,0-0.73,0.09-1.21,0.27l-0.25-0.64l4.9-1.99H280.69z M279.22,171.87      c0.25,0,0.48,0.05,0.7,0.14c0.22,0.09,0.41,0.22,0.57,0.38c0.16,0.16,0.29,0.35,0.38,0.57c0.09,0.22,0.14,0.45,0.14,0.7      c0,0.25-0.05,0.48-0.14,0.7c-0.09,0.22-0.22,0.41-0.38,0.58c-0.16,0.17-0.35,0.3-0.57,0.39c-0.22,0.09-0.45,0.14-0.7,0.14      s-0.48-0.05-0.7-0.14c-0.22-0.09-0.41-0.22-0.58-0.39c-0.17-0.17-0.3-0.36-0.39-0.58c-0.09-0.22-0.14-0.45-0.14-0.7      c0-0.25,0.05-0.48,0.14-0.7c0.09-0.22,0.22-0.41,0.38-0.57c0.16-0.16,0.35-0.29,0.58-0.38      C278.73,171.91,278.97,171.87,279.22,171.87z"/>
				<path class="st6" d="M289.93,183.82c1.91-2.3,3.72-3.45,5.45-3.45c0.6,0,1.16,0.1,1.67,0.3c0.51,0.2,0.95,0.54,1.33,1.01      c0.38,0.47,0.68,1.1,0.89,1.88c0.21,0.78,0.32,1.76,0.32,2.93v6.95c0,0.7,0.04,1.25,0.12,1.65c0.08,0.4,0.21,0.71,0.4,0.91      c0.19,0.21,0.44,0.34,0.76,0.39c0.32,0.05,0.72,0.08,1.21,0.08v0.64h-8.05v-0.64h0.34c0.53,0,0.95-0.05,1.25-0.14      c0.3-0.09,0.53-0.26,0.68-0.49c0.15-0.23,0.25-0.54,0.29-0.93c0.04-0.39,0.06-0.88,0.06-1.47v-6.66c0-1.48-0.19-2.56-0.58-3.22      c-0.38-0.67-1.03-1-1.95-1c-1.41,0-2.81,0.77-4.21,2.31v8.58c0,1.08,0.06,1.76,0.2,2.04c0.08,0.18,0.17,0.33,0.28,0.46      c0.1,0.13,0.24,0.23,0.41,0.31c0.17,0.08,0.4,0.13,0.68,0.17c0.28,0.04,0.64,0.05,1.09,0.05v0.64h-8.05v-0.64h0.36      c0.43,0,0.78-0.05,1.05-0.14c0.27-0.09,0.49-0.26,0.65-0.5c0.16-0.24,0.27-0.55,0.33-0.93c0.06-0.38,0.09-0.87,0.09-1.47v-6.04      c0-1.93-0.05-3.12-0.14-3.57c-0.08-0.43-0.22-0.72-0.4-0.87c-0.18-0.15-0.43-0.23-0.74-0.23c-0.33,0-0.73,0.09-1.19,0.27      l-0.27-0.64l4.9-1.99h0.76V183.82z"/>
				<path class="st6" d="M308.19,171.87v16.15l4.14-3.73c0.38-0.34,0.68-0.62,0.91-0.83c0.22-0.21,0.39-0.39,0.51-0.52      c0.11-0.14,0.18-0.25,0.21-0.33c0.03-0.08,0.04-0.17,0.04-0.27c0-0.24-0.1-0.44-0.29-0.61c-0.2-0.17-0.52-0.27-0.97-0.29v-0.57      h7.07v0.57c-0.5,0.01-0.94,0.05-1.32,0.12c-0.38,0.07-0.75,0.17-1.1,0.31c-0.35,0.14-0.69,0.33-1.03,0.58      c-0.34,0.24-0.7,0.54-1.09,0.9l-4.17,3.86l4.17,5.28c1.15,1.46,1.93,2.38,2.35,2.77c0.26,0.26,0.49,0.47,0.68,0.63      c0.2,0.16,0.4,0.29,0.6,0.38c0.21,0.09,0.44,0.16,0.71,0.2c0.27,0.04,0.61,0.05,1.04,0.05v0.64h-7.91v-0.64      c0.45-0.01,0.75-0.08,0.91-0.2c0.16-0.12,0.24-0.3,0.24-0.52c0-0.28-0.24-0.72-0.71-1.31l-4.99-6.32v5.35      c0,0.54,0.02,0.98,0.05,1.31c0.04,0.33,0.09,0.6,0.16,0.79c0.07,0.2,0.16,0.34,0.27,0.44c0.11,0.09,0.23,0.18,0.37,0.25      c0.25,0.13,0.84,0.21,1.78,0.23v0.64h-8.28v-0.64c0.56,0,1.01-0.04,1.36-0.11c0.35-0.07,0.62-0.21,0.83-0.42      c0.2-0.21,0.34-0.5,0.41-0.89c0.07-0.38,0.11-0.89,0.11-1.52v-14.82c0-0.95-0.01-1.71-0.03-2.28c-0.02-0.57-0.05-0.96-0.1-1.16      c-0.09-0.43-0.23-0.72-0.42-0.88c-0.18-0.16-0.43-0.24-0.74-0.24c-0.24,0-0.61,0.1-1.12,0.3l-0.3-0.62l4.83-1.99H308.19z"/>
			</g>
		</g>
		<g>
			<path class="st6" d="M237.1,183.19c0.37,0.33,0.71,0.7,0.99,1.12c0.07,0.1,0.18,0.15,0.3,0.13c0.17-0.03,0.34-0.04,0.51-0.04     h5.74c1.76,0,3.19,1.43,3.19,3.19c0,1.76-1.43,3.19-3.19,3.19h-5.74c-0.24,0-0.48-0.03-0.7-0.08c-0.23-0.05-0.44-0.13-0.65-0.22     c-0.63-0.3-1.15-0.79-1.47-1.41c-0.11-0.2-0.19-0.41-0.25-0.64c-0.06-0.23-0.07-0.46-0.05-0.7c0-0.05,0-0.09,0-0.14     c0-0.14-0.01-0.28-0.04-0.41c-0.06-0.37-0.2-0.71-0.4-1.01c-0.4-0.59-1.33-0.4-1.49,0.29c-0.08,0.36-0.12,0.74-0.12,1.13     c0,0.83,0.2,1.62,0.54,2.31c0.1,0.2,0.21,0.39,0.34,0.58c0.39,0.58,0.89,1.07,1.47,1.45c0.21,0.13,0.42,0.26,0.65,0.36     c0.66,0.31,1.4,0.48,2.18,0.48h5.74c2.94,0,5.32-2.46,5.17-5.44c-0.14-2.78-2.54-4.92-5.32-4.92h-5.58c-0.6,0-1.17,0.1-1.7,0.29     C236.98,182.76,236.93,183.04,237.1,183.19z"/>
			<path class="st6" d="M222.34,187.84c0.14,2.78,2.54,4.91,5.32,4.91h5.58c0.59,0,1.16-0.1,1.69-0.28c0.22-0.08,0.27-0.36,0.1-0.51     c-0.37-0.33-0.7-0.7-0.97-1.11c-0.07-0.1-0.19-0.15-0.31-0.13c-0.16,0.03-0.33,0.04-0.51,0.04l-5.62,0     c-1.7,0-3.18-1.28-3.29-2.97c-0.12-1.86,1.35-3.41,3.18-3.41h5.74c0.24,0,0.48,0.03,0.7,0.08c0.23,0.05,0.44,0.13,0.65,0.22     c0.63,0.3,1.15,0.8,1.47,1.41c0.1,0.2,0.19,0.41,0.25,0.64c0.06,0.23,0.07,0.46,0.05,0.7c0,0.05,0,0.09,0,0.14     c0,0.14,0.01,0.28,0.04,0.41c0.06,0.37,0.2,0.72,0.41,1.02c0.4,0.58,1.33,0.4,1.48-0.29c0.08-0.37,0.13-0.75,0.13-1.14     c0-0.83-0.2-1.61-0.54-2.31c-0.1-0.2-0.21-0.39-0.34-0.58c-0.39-0.58-0.89-1.07-1.47-1.45c-0.2-0.13-0.42-0.26-0.64-0.36     c-0.66-0.31-1.4-0.48-2.18-0.48h-5.74C224.57,182.4,222.19,184.87,222.34,187.84z"/>
		</g>
	</g>
	<g>
		<rect x="126.72" y="207.36" class="st6" width="195.03" height="1.5"/>
	</g>
</g>
</svg>